<?xml version="1.0" encoding="utf-8"?>
<svg viewBox="191.766 159.579 412.462 50.034" width="412.462" height="50.034" xmlns="http://www.w3.org/2000/svg">
    <path d="M 212.932 197.983 C 212.468 198.389 211.761 198.744 210.811 199.048 C 209.861 199.345 208.828 199.494 207.713 199.494 C 206.344 199.494 205.177 199.287 204.212 198.873 C 203.239 198.467 202.573 197.889 202.214 197.139 C 201.788 196.234 201.286 195.078 200.71 193.673 C 200.134 192.267 199.532 190.713 198.903 189.011 C 198.275 187.309 197.62 185.482 196.939 183.53 C 196.258 181.578 195.604 179.618 194.975 177.651 C 194.347 175.683 193.752 173.754 193.191 171.865 C 192.637 169.975 192.162 168.223 191.766 166.606 C 192.229 166.161 192.884 165.732 193.73 165.318 C 194.575 164.904 195.484 164.697 196.457 164.697 C 197.639 164.697 198.597 164.971 199.33 165.517 C 200.07 166.056 200.639 167.02 201.036 168.41 C 202.113 172.306 203.19 176.054 204.268 179.653 C 205.345 183.253 206.494 186.962 207.713 190.78 L 208.039 190.78 C 209.116 187.149 210.227 183.14 211.372 178.752 C 212.524 174.364 213.602 170.014 214.604 165.704 C 215.18 165.408 215.79 165.166 216.433 164.978 C 217.084 164.791 217.821 164.697 218.644 164.697 C 219.834 164.697 220.848 164.978 221.686 165.54 C 222.531 166.103 222.954 167.02 222.954 168.293 C 222.954 169.081 222.767 170.264 222.393 171.842 C 222.011 173.411 221.517 175.191 220.911 177.182 C 220.298 179.165 219.613 181.242 218.858 183.413 C 218.109 185.591 217.365 187.653 216.624 189.597 C 215.891 191.549 215.191 193.274 214.526 194.774 C 213.86 196.273 213.328 197.342 212.932 197.983 Z M 238.017 175.824 L 238.017 198.931 C 237.658 199.048 237.157 199.154 236.513 199.248 C 235.87 199.341 235.152 199.388 234.359 199.388 C 232.742 199.388 231.583 199.115 230.879 198.568 C 230.184 198.022 229.836 196.964 229.836 195.394 L 229.836 172.287 C 230.195 172.177 230.696 172.064 231.34 171.947 C 231.991 171.838 232.709 171.783 233.494 171.783 C 235.11 171.783 236.27 172.064 236.973 172.626 C 237.669 173.188 238.017 174.254 238.017 175.824 Z M 229.353 164.194 C 229.353 162.921 229.772 161.832 230.61 160.926 C 231.456 160.028 232.563 159.579 233.932 159.579 C 235.294 159.579 236.397 160.028 237.243 160.926 C 238.088 161.832 238.511 162.921 238.511 164.194 C 238.511 165.505 238.088 166.61 237.243 167.508 C 236.397 168.406 235.294 168.855 233.932 168.855 C 232.563 168.855 231.456 168.406 230.61 167.508 C 229.772 166.61 229.353 165.505 229.353 164.194 Z M 267.794 191.061 C 267.794 193.833 266.806 195.999 264.831 197.561 C 262.856 199.115 259.945 199.892 256.099 199.892 C 254.596 199.892 253.223 199.779 251.981 199.552 C 250.746 199.326 249.68 198.99 248.782 198.545 C 247.884 198.092 247.181 197.53 246.672 196.858 C 246.171 196.179 245.92 195.39 245.92 194.492 C 245.92 193.665 246.081 192.962 246.403 192.384 C 246.732 191.807 247.147 191.33 247.649 190.955 C 248.689 191.588 249.875 192.15 251.206 192.642 C 252.531 193.126 254.072 193.368 255.83 193.368 C 258.381 193.368 259.657 192.619 259.657 191.119 C 259.657 190.479 259.433 189.991 258.984 189.655 C 258.535 189.32 257.772 189.019 256.694 188.754 L 254.54 188.25 C 251.599 187.618 249.411 186.634 247.974 185.299 C 246.538 183.971 245.819 182.109 245.819 179.712 C 245.819 177.049 246.852 174.941 248.917 173.388 C 250.982 171.826 253.754 171.045 257.233 171.045 C 258.527 171.045 259.751 171.151 260.903 171.361 C 262.048 171.564 263.035 171.873 263.866 172.287 C 264.689 172.7 265.343 173.216 265.83 173.833 C 266.316 174.449 266.559 175.172 266.559 175.999 C 266.559 176.749 266.413 177.413 266.121 177.99 C 265.837 178.576 265.459 179.056 264.988 179.431 C 264.704 179.244 264.285 179.037 263.731 178.81 C 263.17 178.584 262.568 178.377 261.924 178.189 C 261.273 178.002 260.589 177.854 259.87 177.744 C 259.152 177.627 258.49 177.569 257.884 177.569 C 256.627 177.569 255.647 177.748 254.944 178.107 C 254.248 178.459 253.9 178.994 253.9 179.712 C 253.9 180.235 254.094 180.645 254.483 180.942 C 254.88 181.246 255.598 181.527 256.638 181.785 L 258.692 182.289 C 261.962 183.038 264.296 184.127 265.695 185.556 C 267.094 186.977 267.794 188.812 267.794 191.061 Z M 299.828 193.368 C 299.828 195.133 299.091 196.484 297.617 197.42 C 296.473 198.17 295.055 198.76 293.364 199.189 C 291.673 199.618 289.806 199.833 287.764 199.833 C 285.826 199.833 284.064 199.618 282.478 199.189 C 280.899 198.76 279.545 198.076 278.415 197.139 C 277.285 196.202 276.406 195.02 275.778 193.591 C 275.149 192.17 274.835 190.448 274.835 188.426 L 274.835 172.064 C 275.231 171.947 275.751 171.834 276.395 171.724 C 277.038 171.615 277.757 171.56 278.55 171.56 C 280.166 171.56 281.325 171.842 282.029 172.404 C 282.725 172.966 283.073 174.032 283.073 175.601 L 283.073 188.367 C 283.073 190.054 283.488 191.26 284.318 191.986 C 285.141 192.72 286.308 193.087 287.82 193.087 C 288.748 193.087 289.526 193.001 290.154 192.829 C 290.783 192.665 291.261 192.49 291.591 192.302 L 291.591 172.064 C 291.95 171.947 292.451 171.834 293.095 171.724 C 293.738 171.615 294.456 171.56 295.249 171.56 C 296.865 171.56 298.033 171.842 298.751 172.404 C 299.469 172.966 299.828 174.032 299.828 175.601 L 299.828 193.368 Z M 318.882 193.532 C 319.668 193.532 320.45 193.45 321.228 193.286 C 321.999 193.114 322.582 192.9 322.979 192.642 L 322.979 187.465 L 318.557 187.864 C 317.405 187.973 316.481 188.242 315.785 188.672 C 315.082 189.101 314.73 189.749 314.73 190.616 C 314.73 191.514 315.055 192.224 315.706 192.747 C 316.35 193.271 317.408 193.532 318.882 193.532 Z M 318.557 171.104 C 320.427 171.104 322.126 171.303 323.652 171.701 C 325.178 172.091 326.48 172.7 327.558 173.528 C 328.635 174.348 329.469 175.394 330.06 176.667 C 330.651 177.947 330.947 179.447 330.947 181.164 L 330.947 193.872 C 330.947 194.848 330.704 195.625 330.217 196.202 C 329.731 196.788 329.148 197.288 328.467 197.702 C 327.352 198.412 325.986 198.955 324.37 199.33 C 322.754 199.704 320.925 199.892 318.882 199.892 C 315.179 199.892 312.235 199.15 310.05 197.666 C 307.858 196.191 306.762 193.934 306.762 190.897 C 306.762 188.312 307.499 186.345 308.973 184.994 C 310.439 183.643 312.699 182.8 315.751 182.464 L 322.923 181.68 L 322.923 181.059 C 322.923 179.856 322.455 178.974 321.52 178.412 C 320.585 177.85 319.238 177.569 317.48 177.569 C 316.118 177.569 314.779 177.737 313.462 178.072 C 312.152 178.416 310.978 178.81 309.938 179.255 C 309.504 178.959 309.137 178.502 308.838 177.885 C 308.531 177.26 308.378 176.593 308.378 175.882 C 308.378 174.235 309.205 173.056 310.858 172.345 C 311.898 171.931 313.11 171.623 314.494 171.42 C 315.871 171.209 317.225 171.104 318.557 171.104 Z M 344.022 199.388 C 342.406 199.388 341.246 199.115 340.543 198.568 C 339.847 198.022 339.499 196.964 339.499 195.394 L 339.499 162.39 C 339.858 162.281 340.367 162.167 341.025 162.05 C 341.691 161.941 342.42 161.886 343.214 161.886 C 344.792 161.886 345.941 162.167 346.659 162.73 C 347.377 163.292 347.736 164.361 347.736 165.939 L 347.736 198.931 C 347.34 199.048 346.82 199.154 346.176 199.248 C 345.525 199.341 344.807 199.388 344.022 199.388 Z M 378.258 181.961 C 378.258 178.322 377.405 175.613 375.699 173.833 C 373.993 172.052 371.779 171.162 369.055 171.162 C 368.404 171.162 367.791 171.182 367.215 171.221 C 366.646 171.26 366.074 171.334 365.498 171.443 L 365.498 192.361 C 365.962 192.47 366.526 192.552 367.192 192.607 C 367.858 192.662 368.494 192.689 369.1 192.689 C 371.906 192.689 374.136 191.799 375.789 190.019 C 377.435 188.238 378.258 185.552 378.258 181.961 Z M 386.989 181.844 C 386.989 184.842 386.559 187.465 385.699 189.714 C 384.838 191.963 383.626 193.837 382.063 195.336 C 380.499 196.835 378.613 197.959 376.406 198.709 C 374.199 199.458 371.749 199.833 369.055 199.833 C 368.442 199.833 367.75 199.814 366.979 199.775 C 366.208 199.736 365.419 199.669 364.611 199.575 C 363.803 199.482 362.984 199.353 362.153 199.189 C 361.33 199.017 360.578 198.803 359.897 198.545 C 358.027 197.827 357.092 196.55 357.092 194.715 L 357.092 167.953 C 357.092 167.204 357.279 166.626 357.653 166.22 C 358.034 165.806 358.584 165.466 359.303 165.201 C 360.777 164.717 362.337 164.401 363.983 164.252 C 365.636 164.096 367.147 164.018 368.517 164.018 C 371.277 164.018 373.791 164.377 376.058 165.095 C 378.318 165.806 380.256 166.899 381.872 168.375 C 383.488 169.858 384.745 171.717 385.643 173.95 C 386.541 176.175 386.989 178.806 386.989 181.844 Z M 398.61 192.244 C 397.779 190.37 396.836 187.926 395.781 184.912 C 394.719 181.89 393.615 177.983 392.471 173.188 C 392.897 172.697 393.496 172.275 394.266 171.924 C 395.044 171.564 395.882 171.385 396.78 171.385 C 397.925 171.385 398.857 171.639 399.575 172.146 C 400.293 172.654 400.85 173.583 401.247 174.933 C 402.04 177.666 402.841 180.364 403.649 183.026 C 404.457 185.689 405.272 188.367 406.095 191.061 L 406.308 191.061 C 406.742 189.788 407.191 188.394 407.655 186.88 C 408.127 185.357 408.575 183.78 409.002 182.148 C 409.436 180.524 409.84 178.877 410.214 177.206 C 410.596 175.535 410.929 173.915 411.213 172.345 C 412.328 171.705 413.495 171.385 414.714 171.385 C 415.867 171.385 416.854 171.646 417.677 172.169 C 418.5 172.7 418.912 173.563 418.912 174.758 C 418.912 176.109 418.687 177.822 418.238 179.899 C 417.789 181.984 417.198 184.159 416.465 186.423 C 415.732 188.695 414.905 190.944 413.985 193.169 C 413.072 195.402 412.129 197.362 411.157 199.048 C 409.144 202.609 407.33 205.26 405.714 207.001 C 404.098 208.742 402.467 209.613 400.821 209.613 C 399.489 209.613 398.393 209.191 397.532 208.348 C 396.672 207.505 396.152 206.427 395.972 205.115 C 397.117 204.069 398.31 202.843 399.552 201.438 C 400.787 200.032 401.838 198.615 402.706 197.186 C 402.092 196.999 401.453 196.577 400.787 195.921 C 400.121 195.265 399.395 194.04 398.61 192.244 Z M 442.336 181.726 C 442.336 180.415 441.958 179.443 441.203 178.81 C 440.447 178.17 439.441 177.85 438.184 177.85 C 437.323 177.85 436.534 177.963 435.816 178.189 C 435.097 178.416 434.431 178.697 433.818 179.033 L 433.818 198.931 C 433.459 199.048 432.958 199.154 432.314 199.248 C 431.663 199.341 430.945 199.388 430.159 199.388 C 428.543 199.388 427.376 199.115 426.658 198.568 C 425.94 198.022 425.58 196.964 425.58 195.394 L 425.58 178.025 C 425.58 177.049 425.779 176.261 426.175 175.66 C 426.564 175.058 427.118 174.496 427.836 173.973 C 428.988 173.114 430.47 172.419 432.28 171.888 C 434.099 171.365 436.104 171.104 438.296 171.104 C 442.209 171.104 445.232 172.005 447.364 173.809 C 449.504 175.605 450.574 178.17 450.574 181.504 L 450.574 198.931 C 450.177 199.048 449.657 199.154 449.014 199.248 C 448.363 199.341 447.645 199.388 446.859 199.388 C 445.243 199.388 444.083 199.115 443.38 198.568 C 442.684 198.022 442.336 196.964 442.336 195.394 L 442.336 181.726 Z M 469.682 193.532 C 470.467 193.532 471.249 193.45 472.027 193.286 C 472.798 193.114 473.382 192.9 473.778 192.642 L 473.778 187.465 L 469.356 187.864 C 468.204 187.973 467.28 188.242 466.584 188.672 C 465.881 189.101 465.529 189.749 465.529 190.616 C 465.529 191.514 465.855 192.224 466.506 192.747 C 467.149 193.271 468.208 193.532 469.682 193.532 Z M 469.356 171.104 C 471.227 171.104 472.925 171.303 474.451 171.701 C 475.978 172.091 477.28 172.7 478.357 173.528 C 479.434 174.348 480.269 175.394 480.86 176.667 C 481.451 177.947 481.746 179.447 481.746 181.164 L 481.746 193.872 C 481.746 194.848 481.503 195.625 481.017 196.202 C 480.53 196.788 479.947 197.288 479.266 197.702 C 478.151 198.412 476.786 198.955 475.17 199.33 C 473.554 199.704 471.724 199.892 469.682 199.892 C 465.978 199.892 463.034 199.15 460.849 197.666 C 458.657 196.191 457.561 193.934 457.561 190.897 C 457.561 188.312 458.298 186.345 459.772 184.994 C 461.238 183.643 463.498 182.8 466.551 182.464 L 473.722 181.68 L 473.722 181.059 C 473.722 179.856 473.254 178.974 472.319 178.412 C 471.384 177.85 470.037 177.569 468.279 177.569 C 466.917 177.569 465.578 177.737 464.261 178.072 C 462.952 178.416 461.777 178.81 460.737 179.255 C 460.303 178.959 459.937 178.502 459.637 177.885 C 459.331 177.26 459.177 176.593 459.177 175.882 C 459.177 174.235 460.004 173.056 461.657 172.345 C 462.697 171.931 463.909 171.623 465.294 171.42 C 466.67 171.209 468.024 171.104 469.356 171.104 Z M 529.185 181.223 L 529.185 198.931 C 528.789 199.048 528.269 199.154 527.625 199.248 C 526.982 199.341 526.264 199.388 525.471 199.388 C 523.854 199.388 522.695 199.115 521.991 198.568 C 521.296 198.022 520.948 196.964 520.948 195.394 L 520.948 181.445 C 520.948 180.212 520.622 179.306 519.971 178.728 C 519.328 178.143 518.449 177.85 517.334 177.85 C 516.616 177.85 515.942 177.983 515.314 178.248 C 514.685 178.506 514.121 178.841 513.619 179.255 C 513.657 179.443 513.683 179.63 513.698 179.817 C 513.72 180.005 513.731 180.192 513.731 180.38 L 513.731 198.931 C 513.335 199.048 512.811 199.154 512.16 199.248 C 511.517 199.341 510.799 199.388 510.005 199.388 C 508.389 199.388 507.233 199.115 506.538 198.568 C 505.834 198.022 505.483 196.964 505.483 195.394 L 505.483 181.445 C 505.483 180.212 505.124 179.306 504.405 178.728 C 503.687 178.143 502.808 177.85 501.768 177.85 C 501.012 177.85 500.331 177.971 499.725 178.213 C 499.112 178.463 498.607 178.697 498.21 178.916 L 498.21 198.931 C 497.851 199.048 497.35 199.154 496.706 199.248 C 496.055 199.341 495.337 199.388 494.552 199.388 C 492.935 199.388 491.768 199.115 491.05 198.568 C 490.332 198.022 489.973 196.964 489.973 195.394 L 489.973 178.025 C 489.973 177.049 490.171 176.261 490.567 175.66 C 490.957 175.058 491.51 174.496 492.228 173.973 C 493.418 173.114 494.885 172.419 496.628 171.888 C 498.364 171.365 500.185 171.104 502.093 171.104 C 503.597 171.104 505.023 171.318 506.369 171.748 C 507.716 172.185 508.947 172.853 510.062 173.751 C 511.139 173.001 512.362 172.372 513.731 171.865 C 515.093 171.357 516.709 171.104 518.58 171.104 C 519.979 171.104 521.314 171.283 522.586 171.642 C 523.866 171.994 524.988 172.575 525.953 173.388 C 526.926 174.192 527.708 175.238 528.299 176.526 C 528.89 177.822 529.185 179.388 529.185 181.223 Z M 545.972 175.824 L 545.972 198.931 C 545.613 199.048 545.112 199.154 544.469 199.248 C 543.825 199.341 543.107 199.388 542.314 199.388 C 540.698 199.388 539.538 199.115 538.835 198.568 C 538.139 198.022 537.791 196.964 537.791 195.394 L 537.791 172.287 C 538.15 172.177 538.651 172.064 539.295 171.947 C 539.946 171.838 540.664 171.783 541.45 171.783 C 543.066 171.783 544.225 172.064 544.929 172.626 C 545.625 173.188 545.972 174.254 545.972 175.824 Z M 537.308 164.194 C 537.308 162.921 537.727 161.832 538.565 160.926 C 539.411 160.028 540.518 159.579 541.887 159.579 C 543.249 159.579 544.353 160.028 545.198 160.926 C 546.044 161.832 546.466 162.921 546.466 164.194 C 546.466 165.505 546.044 166.61 545.198 167.508 C 544.353 168.406 543.249 168.855 541.887 168.855 C 540.518 168.855 539.411 168.406 538.565 167.508 C 537.727 166.61 537.308 165.505 537.308 164.194 Z M 568.69 177.908 C 566.752 177.908 565.102 178.556 563.741 179.853 C 562.371 181.141 561.687 183.042 561.687 185.556 C 561.687 188.063 562.341 189.937 563.651 191.178 C 564.968 192.412 566.629 193.029 568.634 193.029 C 569.786 193.029 570.803 192.868 571.686 192.548 C 572.562 192.236 573.306 191.908 573.92 191.565 C 574.526 192.056 575.001 192.572 575.345 193.11 C 575.689 193.657 575.861 194.325 575.861 195.113 C 575.861 196.534 575.143 197.678 573.706 198.545 C 572.27 199.404 570.276 199.833 567.725 199.833 C 565.57 199.833 563.602 199.533 561.821 198.931 C 560.048 198.33 558.533 197.432 557.276 196.238 C 556.019 195.035 555.047 193.544 554.358 191.764 C 553.677 189.983 553.337 187.914 553.337 185.556 C 553.337 183.12 553.715 181 554.47 179.197 C 555.226 177.401 556.251 175.902 557.545 174.699 C 558.832 173.505 560.34 172.607 562.068 172.005 C 563.789 171.404 565.604 171.104 567.511 171.104 C 569.988 171.104 571.933 171.572 573.347 172.509 C 574.769 173.446 575.48 174.629 575.48 176.058 C 575.48 176.729 575.326 177.346 575.019 177.908 C 574.713 178.471 574.346 178.959 573.92 179.372 C 573.269 178.998 572.506 178.658 571.63 178.353 C 570.747 178.057 569.767 177.908 568.69 177.908 Z M 604.228 191.061 C 604.228 193.833 603.24 195.999 601.265 197.561 C 599.29 199.115 596.38 199.892 592.534 199.892 C 591.03 199.892 589.657 199.779 588.415 199.552 C 587.181 199.326 586.114 198.99 585.217 198.545 C 584.319 198.092 583.615 197.53 583.107 196.858 C 582.605 196.179 582.355 195.39 582.355 194.492 C 582.355 193.665 582.516 192.962 582.837 192.384 C 583.167 191.807 583.582 191.33 584.083 190.955 C 585.123 191.588 586.309 192.15 587.641 192.642 C 588.965 193.126 590.506 193.368 592.265 193.368 C 594.816 193.368 596.092 192.619 596.092 191.119 C 596.092 190.479 595.867 189.991 595.418 189.655 C 594.969 189.32 594.206 189.019 593.129 188.754 L 590.974 188.25 C 588.034 187.618 585.845 186.634 584.409 185.299 C 582.972 183.971 582.254 182.109 582.254 179.712 C 582.254 177.049 583.286 174.941 585.351 173.388 C 587.416 171.826 590.188 171.045 593.667 171.045 C 594.962 171.045 596.185 171.151 597.337 171.361 C 598.482 171.564 599.47 171.873 600.3 172.287 C 601.123 172.7 601.778 173.216 602.264 173.833 C 602.75 174.449 602.994 175.172 602.994 175.999 C 602.994 176.749 602.848 177.413 602.556 177.99 C 602.272 178.576 601.894 179.056 601.422 179.431 C 601.138 179.244 600.719 179.037 600.165 178.81 C 599.604 178.584 599.002 178.377 598.359 178.189 C 597.708 178.002 597.023 177.854 596.305 177.744 C 595.586 177.627 594.924 177.569 594.318 177.569 C 593.061 177.569 592.081 177.748 591.378 178.107 C 590.682 178.459 590.334 178.994 590.334 179.712 C 590.334 180.235 590.529 180.645 590.918 180.942 C 591.314 181.246 592.033 181.527 593.073 181.785 L 595.126 182.289 C 598.396 183.038 600.73 184.127 602.129 185.556 C 603.529 186.977 604.228 188.812 604.228 191.061 Z"/>
</svg>