<svg xmlns="http://www.w3.org/2000/svg" width="326.396" height="213.132" viewBox="102.945 97.504 326.396 213.132"><g transform="matrix(1.1294749975204468, 0, 0, 1.1294749975204468, 66.97102355957031, 12.781808853149418)"><svg xmlns="http://www.w3.org/2000/svg" id="Calque_1" width="360" height="360" x="0" y="0" enable-background="new 0 0 360 360" version="1.1" viewBox="0 0 360 360"><path d="M190.76 157.86c6.31-10.58 15.17-19.11 25.53-24.99c10.38-5.9 22.25-9.14 34.55-9.14 c19.33 0 36.82 7.83 49.49 20.5c12.67 12.67 20.5 30.16 20.5 49.49s-7.83 36.82-20.5 49.49c-12.67 12.67-30.16 20.5-49.49 20.5c-19.33 0-36.82-7.83-49.49-20.5c-32.64-32.64-8.45-61.35-37.41-90.31c-10.45-10.45-24.88-16.91-40.82-16.91c-15.94 0-30.37 6.46-40.82 16.91c-10.45 10.45-16.91 24.88-16.91 40.82c0 15.94 6.46 30.37 16.91 40.82c10.45 10.45 24.88 16.91 40.82 16.91c10.19 0 19.98-2.67 28.52-7.52c5.73-3.25 10.9-7.48 15.25-12.54c3.81-4.43 10.28-5.43 15.29-2.43h0c0.56 0.34 0.75 1.07 0.4 1.63c-6.26 10.11-14.89 18.28-24.92 23.98c-10.38 5.9-22.25 9.14-34.55 9.14c-19.33 0-36.82-7.83-49.49-20.5c-12.67-12.67-20.5-30.16-20.5-49.49s7.83-36.82 20.5-49.49c12.67-12.67 30.16-20.5 49.49-20.5c19.33 0 36.82 7.83 49.49 20.5c32.64 32.64 8.45 61.36 37.41 90.31c10.45 10.45 24.88 16.91 40.82 16.91c15.94 0 30.37-6.46 40.82-16.91c10.45-10.45 16.91-24.88 16.91-40.82c0-15.94-6.46-30.37-16.91-40.82c-10.45-10.45-24.88-16.91-40.82-16.91c-10.19 0-19.98 2.67-28.52 7.52c-5.73 3.25-10.9 7.48-15.26 12.55c-3.81 4.43-10.28 5.43-15.29 2.43L190.76 157.86z M238.52 196.11c1.13-9-6.43-16.56-15.43-15.43c-6.13 0.77-11.08 5.72-11.85 11.85c-1.13 9 6.43 16.56 15.43 15.43C232.8 207.19 237.75 202.24 238.52 196.11z M290.56 196.11c1.13-9-6.43-16.56-15.43-15.43c-6.13 0.77-11.08 5.72-11.85 11.85c-1.13 9 6.43 16.56 15.43 15.43 C284.84 207.19 289.79 202.24 290.56 196.11z M252.69 206.7c-9-1.13-16.56 6.43-15.43 15.43c0.77 6.13 5.72 11.08 11.85 11.85c9 1.13 16.56-6.43 15.43-15.43C263.77 212.43 258.82 207.48 252.69 206.7z M252.69 154.66c-9-1.13-16.56 6.43-15.43 15.43c0.77 6.13 5.72 11.08 11.85 11.85c9 1.13 16.56-6.43 15.43-15.43C263.77 160.38 258.82 155.43 252.69 154.66z M96.18 207.73h12.96v12.96c0 7.38 6.03 13.41 13.41 13.41l0 0c7.38 0 13.41-6.03 13.41-13.41v-12.96h12.96c7.37 0 13.41-6.03 13.41-13.41l0 0c0-7.38-6.03-13.41-13.41-13.41h-12.96v-12.96c0-7.38-6.03-13.41-13.41-13.41l0 0c-7.38 0-13.41 6.03-13.41 13.41v12.96H96.18c-7.38 0-13.41 6.03-13.41 13.41l0 0C82.77 201.69 88.81 207.73 96.18 207.73z M36.37 92.94h4.37v4.37c0 2.49 2.03 4.52 4.52 4.52l0 0c2.49 0 4.52-2.03 4.52-4.52v-4.37h4.37c2.49 0 4.52-2.03 4.52-4.52l0 0c0-2.49-2.03-4.52-4.52-4.52h-4.37v-4.37c0-2.49-2.03-4.52-4.52-4.52l0 0c-2.49 0-4.52 2.03-4.52 4.52v4.37h-4.37c-2.49 0-4.52 2.03-4.52 4.52l0 0C31.85 90.9 33.88 92.94 36.37 92.94z M36.37 140.43h4.37v4.37c0 2.49 2.03 4.52 4.52 4.52l0 0c2.49 0 4.52-2.03 4.52-4.52v-4.37 h4.37c2.49 0 4.52-2.03 4.52-4.52l0 0c0-2.49-2.03-4.52-4.52-4.52h-4.37v-4.37c0-2.49-2.03-4.52-4.52-4.52l0 0c-2.49 0-4.52 2.03-4.52 4.52v4.37h-4.37c-2.49 0-4.52 2.03-4.52 4.52l0 0C31.85 138.4 33.88 140.43 36.37 140.43z M83.38 112.7h4.37v4.37c0 2.49 2.03 4.52 4.52 4.52l0 0c2.49 0 4.52-2.03 4.52-4.52v-4.37h4.37c2.49 0 4.52-2.03 4.52-4.52l0 0c0-2.49-2.03-4.52-4.52-4.52h-4.37v-4.37c0-2.49-2.03-4.52-4.52-4.52l0 0c-2.49 0-4.52 2.03-4.52 4.52v4.37h-4.37c-2.49 0-4.52 2.03-4.52 4.52l0 0C78.86 110.67 80.89 112.7 83.38 112.7z" class="st0"/></svg></g></svg>