<svg xmlns="http://www.w3.org/2000/svg" width="412.463" height="50.034" viewBox="49.475 359.517 412.463 50.034"><defs><linearGradient id="o_faa85f3ki_5" x1=".76%" x2="99.24%" y1="41.32%" y2="58.68%" gradientUnits="objectBoundingBox"><stop offset="0" stop-color="#00FF0F" stop-opacity="1"/><stop offset=".36" stop-color="#00C0FF" stop-opacity="1"/><stop offset=".53" stop-color="#8B00FF" stop-opacity="1"/><stop offset=".74" stop-color="#FF7200" stop-opacity="1"/><stop offset="1" stop-color="#FFF500" stop-opacity="1"/></linearGradient></defs><path fill="url(#o_faa85f3ki_5)" d="M-165.212-0.86L-165.212-0.86Q-165.832-0.34 -167.102 0.05Q-168.372 0.43 -169.862 0.43L-169.862 0.43Q-171.692 0.43 -172.982-0.1Q-174.282-0.62 -174.762-1.58L-174.762-1.58Q-175.332-2.74 -176.102-4.54Q-176.872-6.34 -177.712-8.52Q-178.552-10.7 -179.462-13.2Q-180.372-15.7 -181.212-18.22Q-182.052-20.74 -182.802-23.16Q-183.542-25.58 -184.072-27.65L-184.072-27.65Q-183.452-28.22 -182.322-28.75Q-181.192-29.28 -179.892-29.28L-179.892-29.28Q-178.312-29.28 -177.332-28.58Q-176.342-27.89 -175.812-26.11L-175.812-26.11Q-174.372-21.12 -172.932-16.51Q-171.492-11.9 -169.862-7.01L-169.862-7.01L-169.572-7.01Q-168.132-11.66 -166.602-17.28Q-165.062-22.9 -163.722-28.42L-163.722-28.42Q-162.952-28.8 -162.092-29.04Q-161.222-29.28 -160.122-29.28L-160.122-29.28Q-158.532-29.28 -157.412-28.56Q-156.282-27.84 -156.282-26.21L-156.282-26.21Q-156.282-25.2 -156.782-23.18Q-157.292-21.17 -158.102-18.62Q-158.922-16.08 -159.932-13.3Q-160.932-10.51 -161.922-8.02Q-162.902-5.52 -163.792-3.6Q-164.682-1.68 -165.212-0.86ZM-142.86-19.78L-142.86-0.05Q-143.34 0.1 -144.2 0.22Q-145.06 0.34 -146.12 0.34L-146.12 0.34Q-148.28 0.34 -149.22-0.36Q-150.15-1.06 -150.15-3.07L-150.15-3.07L-150.15-22.8Q-149.67-22.94 -148.81-23.09Q-147.94-23.23 -146.89-23.23L-146.89-23.23Q-144.73-23.23 -143.79-22.51Q-142.86-21.79 -142.86-19.78L-142.86-19.78ZM-150.58-29.71L-150.58-29.71Q-150.58-31.34 -149.46-32.5Q-148.33-33.65 -146.5-33.65L-146.5-33.65Q-144.68-33.65 -143.55-32.5Q-142.42-31.34 -142.42-29.71L-142.42-29.71Q-142.42-28.03 -143.55-26.88Q-144.68-25.73 -146.5-25.73L-146.5-25.73Q-148.33-25.73 -149.46-26.88Q-150.58-28.03 -150.58-29.71ZM-116.328-6.77L-116.328-6.77Q-116.328-3.22 -118.968-1.22Q-121.608 0.77 -126.748 0.77L-126.748 0.77Q-128.758 0.77 -130.418 0.48Q-132.068 0.19 -133.268-0.38Q-134.468-0.96 -135.148-1.82Q-135.818-2.69 -135.818-3.84L-135.818-3.84Q-135.818-4.9 -135.388-5.64Q-134.948-6.38 -134.278-6.86L-134.278-6.86Q-132.888-6.05 -131.108-5.42Q-129.338-4.8 -126.988-4.8L-126.988-4.8Q-123.578-4.8 -123.578-6.72L-123.578-6.72Q-123.578-7.54 -124.178-7.97Q-124.778-8.4 -126.218-8.74L-126.218-8.74L-128.138-9.17Q-132.068-9.98 -133.988-11.69Q-135.908-13.39 -135.908-16.46L-135.908-16.46Q-135.908-19.87 -133.148-21.86Q-130.388-23.86 -125.738-23.86L-125.738-23.86Q-124.008-23.86 -122.468-23.59Q-120.938-23.33 -119.828-22.8Q-118.728-22.27 -118.078-21.48Q-117.428-20.69 -117.428-19.63L-117.428-19.63Q-117.428-18.67 -117.818-17.93Q-118.198-17.18 -118.828-16.7L-118.828-16.7Q-119.208-16.94 -119.948-17.23Q-120.698-17.52 -121.558-17.76Q-122.428-18 -123.388-18.14Q-124.348-18.29 -125.158-18.29L-125.158-18.29Q-126.838-18.29 -127.778-17.83Q-128.708-17.38 -128.708-16.46L-128.708-16.46Q-128.708-15.79 -128.188-15.41Q-127.658-15.02 -126.268-14.69L-126.268-14.69L-124.438-14.26Q-120.068-13.3 -118.198-11.47Q-116.328-9.65 -116.328-6.77ZM-87.784-4.8L-87.784-4.8Q-87.784-2.54 -89.754-1.34L-89.754-1.34Q-91.284-0.38 -93.544 0.17Q-95.804 0.72 -98.534 0.72L-98.534 0.72Q-101.124 0.72 -103.244 0.17Q-105.354-0.38 -106.864-1.58Q-108.374-2.78 -109.214-4.61Q-110.054-6.43 -110.054-9.02L-110.054-9.02L-110.054-22.99Q-109.524-23.14 -108.664-23.28Q-107.804-23.42 -106.744-23.42L-106.744-23.42Q-104.584-23.42 -103.644-22.7Q-102.714-21.98 -102.714-19.97L-102.714-19.97L-102.714-9.07Q-102.714-6.91 -101.604-5.98Q-100.504-5.04 -98.484-5.04L-98.484-5.04Q-97.244-5.04 -96.404-5.26Q-95.564-5.47 -95.124-5.71L-95.124-5.71L-95.124-22.99Q-94.644-23.14 -93.784-23.28Q-92.924-23.42 -91.864-23.42L-91.864-23.42Q-89.704-23.42 -88.744-22.7Q-87.784-21.98 -87.784-19.97L-87.784-19.97L-87.784-4.8ZM-70.806-4.66L-70.806-4.66Q-69.756-4.66 -68.716-4.87Q-67.686-5.09 -67.156-5.42L-67.156-5.42L-67.156-9.84L-71.096-9.5Q-72.636-9.36 -73.566-8.81Q-74.506-8.26 -74.506-7.15L-74.506-7.15Q-74.506-6 -73.636-5.33Q-72.776-4.66 -70.806-4.66ZM-71.096-23.81L-71.096-23.81Q-68.596-23.81 -66.556-23.3Q-64.516-22.8 -63.076-21.74Q-61.636-20.69 -60.846-19.06Q-60.056-17.42 -60.056-15.22L-60.056-15.22L-60.056-4.37Q-60.056-3.12 -60.706-2.38Q-61.356-1.63 -62.266-1.1L-62.266-1.1Q-63.756-0.19 -65.916 0.29Q-68.076 0.77 -70.806 0.77L-70.806 0.77Q-75.756 0.77 -78.676-1.13Q-81.606-3.02 -81.606-6.91L-81.606-6.91Q-81.606-10.22 -79.636-11.95Q-77.676-13.68 -73.596-14.11L-73.596-14.11L-67.206-14.78L-67.206-15.31Q-67.206-16.85 -68.456-17.57Q-69.706-18.29 -72.056-18.29L-72.056-18.29Q-73.876-18.29 -75.636-17.86Q-77.386-17.42 -78.776-16.85L-78.776-16.85Q-79.356-17.23 -79.756-18.02Q-80.166-18.82 -80.166-19.73L-80.166-19.73Q-80.166-21.84 -77.956-22.75L-77.956-22.75Q-76.566-23.28 -74.716-23.54Q-72.876-23.81 -71.096-23.81ZM-48.406 0.34L-48.406 0.34Q-50.566 0.34 -51.506-0.36Q-52.436-1.06 -52.436-3.07L-52.436-3.07L-52.436-31.25Q-51.956-31.39 -51.076-31.54Q-50.186-31.68 -49.126-31.68L-49.126-31.68Q-47.016-31.68 -46.056-30.96Q-45.096-30.24 -45.096-28.22L-45.096-28.22L-45.096-0.05Q-45.626 0.1 -46.486 0.22Q-47.356 0.34 -48.406 0.34ZM-17.9-14.54L-17.9-14.54Q-17.9-19.2 -20.18-21.48Q-22.46-23.76 -26.1-23.76L-26.1-23.76Q-26.97-23.76 -27.74-23.71Q-28.5-23.66 -29.27-23.52L-29.27-23.52L-29.27-5.66Q-28.65-5.52 -27.76-5.45Q-26.87-5.38 -26.06-5.38L-26.06-5.38Q-22.31-5.38 -20.1-7.66Q-17.9-9.94 -17.9-14.54ZM-10.12-14.64L-10.12-14.64Q-10.12-10.8 -11.27-7.92Q-12.42-5.04 -14.51-3.12Q-16.6-1.2 -19.55-0.24Q-22.5 0.72 -26.1 0.72L-26.1 0.72Q-26.92 0.72 -27.95 0.67Q-28.98 0.62 -30.06 0.5Q-31.14 0.38 -32.25 0.17Q-33.35-0.05 -34.26-0.38L-34.26-0.38Q-36.76-1.3 -36.76-3.65L-36.76-3.65L-36.76-26.5Q-36.76-27.46 -36.26-27.98Q-35.75-28.51 -34.79-28.85L-34.79-28.85Q-32.82-29.47 -30.62-29.66Q-28.41-29.86 -26.58-29.86L-26.58-29.86Q-22.89-29.86 -19.86-28.94Q-16.84-28.03 -14.68-26.14Q-12.52-24.24 -11.32-21.38Q-10.12-18.53 -10.12-14.64ZM 0.234-5.76L 0.234-5.76Q-0.876-8.16 -2.286-12.02Q-3.706-15.89 -5.236-22.03L-5.236-22.03Q-4.666-22.66 -3.636-23.11Q-2.596-23.57 -1.396-23.57L-1.396-23.57Q 0.134-23.57 1.094-22.92Q 2.054-22.27 2.584-20.54L 2.584-20.54Q 3.644-17.04 4.724-13.63Q 5.804-10.22 6.904-6.77L 6.904-6.77L 7.094-6.77Q 7.674-8.4 8.294-10.34Q 8.924-12.29 9.494-14.38Q 10.074-16.46 10.574-18.6Q 11.084-20.74 11.464-22.75L 11.464-22.75Q 12.954-23.57 14.584-23.57L 14.584-23.57Q 16.124-23.57 17.224-22.9Q 18.324-22.22 18.324-20.69L 18.324-20.69Q 18.324-18.96 17.724-16.3Q 17.124-13.63 16.144-10.73Q 15.164-7.82 13.934-4.97Q 12.714-2.11 11.414 0.05L 11.414 0.05Q 8.724 4.61 6.564 6.84Q 4.404 9.07 2.204 9.07L 2.204 9.07Q 0.424 9.07 -0.726 7.99Q-1.876 6.91 -2.116 5.23L-2.116 5.23Q-0.586 3.89 1.074 2.09Q 2.724 0.29 3.884-1.54L 3.884-1.54Q 3.064-1.78 2.174-2.62Q 1.284-3.46 0.234-5.76ZM 39.196-14.74L 39.196-14.74Q 39.196-16.42 38.186-17.23Q 37.176-18.05 35.496-18.05L 35.496-18.05Q 34.346-18.05 33.386-17.76Q 32.426-17.47 31.606-17.04L 31.606-17.04L 31.606-0.05Q 31.126 0.1 30.266 0.22Q 29.396 0.34 28.346 0.34L 28.346 0.34Q 26.186 0.34 25.226-0.36Q 24.266-1.06 24.266-3.07L 24.266-3.07L 24.266-17.9Q 24.266-19.15 24.796-19.92Q 25.316-20.69 26.276-21.36L 26.276-21.36Q 27.816-22.46 30.236-23.14Q 32.666-23.81 35.596-23.81L 35.596-23.81Q 40.826-23.81 43.676-21.5Q 46.536-19.2 46.536-14.93L 46.536-14.93L 46.536-0.05Q 46.006 0.1 45.146 0.22Q 44.276 0.34 43.226 0.34L 43.226 0.34Q 41.066 0.34 40.126-0.36Q 39.196-1.06 39.196-3.07L 39.196-3.07L 39.196-14.74ZM 63.562-4.66L 63.562-4.66Q 64.612-4.66 65.652-4.87Q 66.682-5.09 67.212-5.42L 67.212-5.42L 67.212-9.84L 63.272-9.5Q 61.732-9.36 60.802-8.81Q 59.862-8.26 59.862-7.15L 59.862-7.15Q 59.862-6 60.732-5.33Q 61.592-4.66 63.562-4.66ZM 63.272-23.81L 63.272-23.81Q 65.772-23.81 67.812-23.3Q 69.852-22.8 71.292-21.74Q 72.732-20.69 73.522-19.06Q 74.312-17.42 74.312-15.22L 74.312-15.22L 74.312-4.37Q 74.312-3.12 73.662-2.38Q 73.012-1.63 72.102-1.1L 72.102-1.1Q 70.612-0.19 68.452 0.29Q 66.292 0.77 63.562 0.77L 63.562 0.77Q 58.612 0.77 55.692-1.13Q 52.762-3.02 52.762-6.91L 52.762-6.91Q 52.762-10.22 54.732-11.95Q 56.692-13.68 60.772-14.11L 60.772-14.11L 67.162-14.78L 67.162-15.31Q 67.162-16.85 65.912-17.57Q 64.662-18.29 62.312-18.29L 62.312-18.29Q 60.492-18.29 58.732-17.86Q 56.982-17.42 55.592-16.85L 55.592-16.85Q 55.012-17.23 54.612-18.02Q 54.202-18.82 54.202-19.73L 54.202-19.73Q 54.202-21.84 56.412-22.75L 56.412-22.75Q 57.802-23.28 59.652-23.54Q 61.492-23.81 63.272-23.81ZM 116.582-15.17L 116.582-0.05Q 116.052 0.1 115.192 0.22Q 114.332 0.34 113.272 0.34L 113.272 0.34Q 111.112 0.34 110.172-0.36Q 109.242-1.06 109.242-3.07L 109.242-3.07L 109.242-14.98Q 109.242-16.56 108.372-17.3Q 107.512-18.05 106.022-18.05L 106.022-18.05Q 105.062-18.05 104.222-17.71Q 103.382-17.38 102.712-16.85L 102.712-16.85Q 102.762-16.61 102.782-16.37Q 102.812-16.13 102.812-15.89L 102.812-15.89L 102.812-0.05Q 102.282 0.1 101.412 0.22Q 100.552 0.34 99.492 0.34L 99.492 0.34Q 97.332 0.34 96.402-0.36Q 95.462-1.06 95.462-3.07L 95.462-3.07L 95.462-14.98Q 95.462-16.56 94.502-17.3Q 93.542-18.05 92.152-18.05L 92.152-18.05Q 91.142-18.05 90.332-17.74Q 89.512-17.42 88.982-17.14L 88.982-17.14L 88.982-0.05Q 88.502 0.1 87.642 0.22Q 86.772 0.34 85.722 0.34L 85.722 0.34Q 83.562 0.34 82.602-0.36Q 81.642-1.06 81.642-3.07L 81.642-3.07L 81.642-17.9Q 81.642-19.15 82.172-19.92Q 82.692-20.69 83.652-21.36L 83.652-21.36Q 85.242-22.46 87.572-23.14Q 89.892-23.81 92.442-23.81L 92.442-23.81Q 94.452-23.81 96.252-23.26Q 98.052-22.7 99.542-21.55L 99.542-21.55Q 100.982-22.51 102.812-23.16Q 104.632-23.81 107.132-23.81L 107.132-23.81Q 109.002-23.81 110.702-23.35Q 112.412-22.9 113.702-21.86Q 115.002-20.83 115.792-19.18Q 116.582-17.52 116.582-15.17L 116.582-15.17ZM 131.54-19.78L 131.54-0.05Q 131.06 0.1 130.2 0.22Q 129.34 0.34 128.28 0.34L 128.28 0.34Q 126.12 0.34 125.18-0.36Q 124.25-1.06 124.25-3.07L 124.25-3.07L 124.25-22.8Q 124.73-22.94 125.59-23.09Q 126.46-23.23 127.51-23.23L 127.51-23.23Q 129.67-23.23 130.61-22.51Q 131.54-21.79 131.54-19.78L 131.54-19.78ZM 123.82-29.71L 123.82-29.71Q 123.82-31.34 124.94-32.5Q 126.07-33.65 127.9-33.65L 127.9-33.65Q 129.72-33.65 130.85-32.5Q 131.98-31.34 131.98-29.71L 131.98-29.71Q 131.98-28.03 130.85-26.88Q 129.72-25.73 127.9-25.73L 127.9-25.73Q 126.07-25.73 124.94-26.88Q 123.82-28.03 123.82-29.71ZM 151.782-18L 151.782-18Q 149.192-18 147.372-16.34Q 145.542-14.69 145.542-11.47L 145.542-11.47Q 145.542-8.26 147.292-6.67Q 149.052-5.09 151.732-5.09L 151.732-5.09Q 153.272-5.09 154.452-5.5Q 155.622-5.9 156.442-6.34L 156.442-6.34Q 157.252-5.71 157.712-5.02Q 158.172-4.32 158.172-3.31L 158.172-3.31Q 158.172-1.49 156.252-0.38Q 154.332 0.72 150.922 0.72L 150.922 0.72Q 148.042 0.72 145.662-0.05Q 143.292-0.82 141.612-2.35Q 139.932-3.89 139.012-6.17Q 138.102-8.45 138.102-11.47L 138.102-11.47Q 138.102-14.59 139.112-16.9Q 140.122-19.2 141.852-20.74Q 143.572-22.27 145.882-23.04Q 148.182-23.81 150.732-23.81L 150.732-23.81Q 154.042-23.81 155.932-22.61Q 157.832-21.41 157.832-19.58L 157.832-19.58Q 157.832-18.72 157.422-18Q 157.012-17.28 156.442-16.75L 156.442-16.75Q 155.572-17.23 154.402-17.62Q 153.222-18 151.782-18ZM 183.448-6.77L 183.448-6.77Q 183.448-3.22 180.808-1.22Q 178.168 0.77 173.028 0.77L 173.028 0.77Q 171.018 0.77 169.358 0.48Q 167.708 0.19 166.508-0.38Q 165.308-0.96 164.628-1.82Q 163.958-2.69 163.958-3.84L 163.958-3.84Q 163.958-4.9 164.388-5.64Q 164.828-6.38 165.498-6.86L 165.498-6.86Q 166.888-6.05 168.668-5.42Q 170.438-4.8 172.788-4.8L 172.788-4.8Q 176.198-4.8 176.198-6.72L 176.198-6.72Q 176.198-7.54 175.598-7.97Q 174.998-8.4 173.558-8.74L 173.558-8.74L 171.638-9.17Q 167.708-9.98 165.788-11.69Q 163.868-13.39 163.868-16.46L 163.868-16.46Q 163.868-19.87 166.628-21.86Q 169.388-23.86 174.038-23.86L 174.038-23.86Q 175.768-23.86 177.308-23.59Q 178.838-23.33 179.948-22.8Q 181.048-22.27 181.698-21.48Q 182.348-20.69 182.348-19.63L 182.348-19.63Q 182.348-18.67 181.958-17.93Q 181.578-17.18 180.948-16.7L 180.948-16.7Q 180.568-16.94 179.828-17.23Q 179.078-17.52 178.218-17.76Q 177.348-18 176.388-18.14Q 175.428-18.29 174.618-18.29L 174.618-18.29Q 172.938-18.29 171.998-17.83Q 171.068-17.38 171.068-16.46L 171.068-16.46Q 171.068-15.79 171.588-15.41Q 172.118-15.02 173.508-14.69L 173.508-14.69L 175.338-14.26Q 179.708-13.3 181.578-11.47Q 183.448-9.65 183.448-6.77Z" transform="matrix(1.1222859621047974, 0, 0, 1.171197533607483, 256.0561218261719, 398.9282531738281)"/></svg>