<svg xmlns="http://www.w3.org/2000/svg" width="412.462" height="297.44" viewBox="44.9 94.703 412.462 297.44"><g transform="matrix(1.1294749975204468, 0, 0, 1.1294749975204468, 52.305599212646484, 9.981386184692386)"><svg xmlns="http://www.w3.org/2000/svg" id="Calque_1" width="360" height="360" x="0" y="0" enable-background="new 0 0 360 360" version="1.1" viewBox="0 0 360 360"><path d="M190.76 157.86c6.31-10.58 15.17-19.11 25.53-24.99c10.38-5.9 22.25-9.14 34.55-9.14 c19.33 0 36.82 7.83 49.49 20.5c12.67 12.67 20.5 30.16 20.5 49.49s-7.83 36.82-20.5 49.49c-12.67 12.67-30.16 20.5-49.49 20.5c-19.33 0-36.82-7.83-49.49-20.5c-32.64-32.64-8.45-61.35-37.41-90.31c-10.45-10.45-24.88-16.91-40.82-16.91c-15.94 0-30.37 6.46-40.82 16.91c-10.45 10.45-16.91 24.88-16.91 40.82c0 15.94 6.46 30.37 16.91 40.82c10.45 10.45 24.88 16.91 40.82 16.91c10.19 0 19.98-2.67 28.52-7.52c5.73-3.25 10.9-7.48 15.25-12.54c3.81-4.43 10.28-5.43 15.29-2.43h0c0.56 0.34 0.75 1.07 0.4 1.63c-6.26 10.11-14.89 18.28-24.92 23.98c-10.38 5.9-22.25 9.14-34.55 9.14c-19.33 0-36.82-7.83-49.49-20.5c-12.67-12.67-20.5-30.16-20.5-49.49s7.83-36.82 20.5-49.49c12.67-12.67 30.16-20.5 49.49-20.5c19.33 0 36.82 7.83 49.49 20.5c32.64 32.64 8.45 61.36 37.41 90.31c10.45 10.45 24.88 16.91 40.82 16.91c15.94 0 30.37-6.46 40.82-16.91c10.45-10.45 16.91-24.88 16.91-40.82c0-15.94-6.46-30.37-16.91-40.82c-10.45-10.45-24.88-16.91-40.82-16.91c-10.19 0-19.98 2.67-28.52 7.52c-5.73 3.25-10.9 7.48-15.26 12.55c-3.81 4.43-10.28 5.43-15.29 2.43L190.76 157.86z M238.52 196.11c1.13-9-6.43-16.56-15.43-15.43c-6.13 0.77-11.08 5.72-11.85 11.85c-1.13 9 6.43 16.56 15.43 15.43C232.8 207.19 237.75 202.24 238.52 196.11z M290.56 196.11c1.13-9-6.43-16.56-15.43-15.43c-6.13 0.77-11.08 5.72-11.85 11.85c-1.13 9 6.43 16.56 15.43 15.43 C284.84 207.19 289.79 202.24 290.56 196.11z M252.69 206.7c-9-1.13-16.56 6.43-15.43 15.43c0.77 6.13 5.72 11.08 11.85 11.85c9 1.13 16.56-6.43 15.43-15.43C263.77 212.43 258.82 207.48 252.69 206.7z M252.69 154.66c-9-1.13-16.56 6.43-15.43 15.43c0.77 6.13 5.72 11.08 11.85 11.85c9 1.13 16.56-6.43 15.43-15.43C263.77 160.38 258.82 155.43 252.69 154.66z M96.18 207.73h12.96v12.96c0 7.38 6.03 13.41 13.41 13.41l0 0c7.38 0 13.41-6.03 13.41-13.41v-12.96h12.96c7.37 0 13.41-6.03 13.41-13.41l0 0c0-7.38-6.03-13.41-13.41-13.41h-12.96v-12.96c0-7.38-6.03-13.41-13.41-13.41l0 0c-7.38 0-13.41 6.03-13.41 13.41v12.96H96.18c-7.38 0-13.41 6.03-13.41 13.41l0 0C82.77 201.69 88.81 207.73 96.18 207.73z M36.37 92.94h4.37v4.37c0 2.49 2.03 4.52 4.52 4.52l0 0c2.49 0 4.52-2.03 4.52-4.52v-4.37h4.37c2.49 0 4.52-2.03 4.52-4.52l0 0c0-2.49-2.03-4.52-4.52-4.52h-4.37v-4.37c0-2.49-2.03-4.52-4.52-4.52l0 0c-2.49 0-4.52 2.03-4.52 4.52v4.37h-4.37c-2.49 0-4.52 2.03-4.52 4.52l0 0C31.85 90.9 33.88 92.94 36.37 92.94z M36.37 140.43h4.37v4.37c0 2.49 2.03 4.52 4.52 4.52l0 0c2.49 0 4.52-2.03 4.52-4.52v-4.37 h4.37c2.49 0 4.52-2.03 4.52-4.52l0 0c0-2.49-2.03-4.52-4.52-4.52h-4.37v-4.37c0-2.49-2.03-4.52-4.52-4.52l0 0c-2.49 0-4.52 2.03-4.52 4.52v4.37h-4.37c-2.49 0-4.52 2.03-4.52 4.52l0 0C31.85 138.4 33.88 140.43 36.37 140.43z M83.38 112.7h4.37v4.37c0 2.49 2.03 4.52 4.52 4.52l0 0c2.49 0 4.52-2.03 4.52-4.52v-4.37h4.37c2.49 0 4.52-2.03 4.52-4.52l0 0c0-2.49-2.03-4.52-4.52-4.52h-4.37v-4.37c0-2.49-2.03-4.52-4.52-4.52l0 0c-2.49 0-4.52 2.03-4.52 4.52v4.37h-4.37c-2.49 0-4.52 2.03-4.52 4.52l0 0C78.86 110.67 80.89 112.7 83.38 112.7z" class="st0"/></svg></g><path d="M 66.066 380.513 C 65.602 380.919 64.895 381.274 63.945 381.579 C 62.995 381.875 61.962 382.024 60.848 382.024 C 59.478 382.024 58.311 381.817 57.346 381.403 C 56.373 380.997 55.707 380.419 55.348 379.67 C 54.922 378.764 54.421 377.608 53.844 376.203 C 53.268 374.797 52.666 373.244 52.038 371.541 C 51.409 369.839 50.754 368.012 50.074 366.06 C 49.393 364.108 48.738 362.148 48.11 360.181 C 47.481 358.213 46.886 356.285 46.325 354.395 C 45.771 352.506 45.296 350.753 44.9 349.136 C 45.364 348.691 46.018 348.262 46.864 347.848 C 47.709 347.434 48.618 347.227 49.591 347.227 C 50.773 347.227 51.731 347.501 52.464 348.047 C 53.205 348.586 53.773 349.55 54.17 350.94 C 55.247 354.836 56.325 358.584 57.402 362.184 C 58.48 365.783 59.628 369.492 60.848 373.31 L 61.173 373.31 C 62.25 369.679 63.361 365.67 64.506 361.282 C 65.658 356.894 66.736 352.545 67.738 348.235 C 68.314 347.938 68.924 347.696 69.568 347.508 C 70.219 347.321 70.956 347.227 71.779 347.227 C 72.968 347.227 73.982 347.508 74.82 348.071 C 75.665 348.633 76.088 349.55 76.088 350.823 C 76.088 351.612 75.901 352.794 75.527 354.372 C 75.145 355.941 74.652 357.721 74.046 359.712 C 73.432 361.696 72.748 363.772 71.992 365.943 C 71.244 368.122 70.499 370.183 69.758 372.127 C 69.025 374.079 68.326 375.805 67.66 377.304 C 66.994 378.803 66.463 379.873 66.066 380.513 Z M 91.151 358.354 L 91.151 381.461 C 90.792 381.579 90.291 381.684 89.648 381.778 C 89.004 381.871 88.286 381.918 87.493 381.918 C 85.877 381.918 84.717 381.645 84.014 381.098 C 83.318 380.552 82.97 379.494 82.97 377.924 L 82.97 354.817 C 83.329 354.707 83.83 354.594 84.474 354.477 C 85.125 354.368 85.843 354.313 86.629 354.313 C 88.245 354.313 89.404 354.594 90.108 355.156 C 90.804 355.719 91.151 356.784 91.151 358.354 Z M 82.487 346.724 C 82.487 345.451 82.906 344.362 83.744 343.456 C 84.59 342.558 85.697 342.109 87.066 342.109 C 88.428 342.109 89.532 342.558 90.377 343.456 C 91.223 344.362 91.645 345.451 91.645 346.724 C 91.645 348.035 91.223 349.14 90.377 350.038 C 89.532 350.936 88.428 351.385 87.066 351.385 C 85.697 351.385 84.59 350.936 83.744 350.038 C 82.906 349.14 82.487 348.035 82.487 346.724 Z M 120.928 373.591 C 120.928 376.363 119.94 378.53 117.965 380.091 C 115.99 381.645 113.079 382.422 109.234 382.422 C 107.73 382.422 106.357 382.309 105.115 382.082 C 103.88 381.856 102.814 381.52 101.916 381.075 C 101.019 380.622 100.315 380.06 99.807 379.388 C 99.305 378.709 99.055 377.921 99.055 377.023 C 99.055 376.195 99.215 375.492 99.537 374.914 C 99.866 374.337 100.282 373.86 100.783 373.486 C 101.823 374.118 103.009 374.68 104.341 375.172 C 105.665 375.656 107.206 375.898 108.964 375.898 C 111.516 375.898 112.791 375.149 112.791 373.65 C 112.791 373.009 112.567 372.521 112.118 372.186 C 111.669 371.85 110.906 371.549 109.829 371.284 L 107.674 370.78 C 104.733 370.148 102.545 369.164 101.108 367.829 C 99.672 366.501 98.954 364.639 98.954 362.242 C 98.954 359.58 99.986 357.471 102.051 355.918 C 104.116 354.356 106.888 353.575 110.367 353.575 C 111.662 353.575 112.885 353.681 114.037 353.891 C 115.182 354.094 116.169 354.403 117 354.817 C 117.823 355.231 118.478 355.746 118.964 356.363 C 119.45 356.98 119.693 357.702 119.693 358.529 C 119.693 359.279 119.548 359.943 119.256 360.52 C 118.971 361.106 118.594 361.586 118.122 361.961 C 117.838 361.774 117.419 361.567 116.865 361.34 C 116.304 361.114 115.702 360.907 115.058 360.72 C 114.408 360.532 113.723 360.384 113.005 360.275 C 112.286 360.157 111.624 360.099 111.018 360.099 C 109.761 360.099 108.781 360.278 108.078 360.638 C 107.382 360.989 107.034 361.524 107.034 362.242 C 107.034 362.765 107.229 363.175 107.618 363.472 C 108.014 363.776 108.732 364.057 109.772 364.315 L 111.826 364.819 C 115.096 365.568 117.43 366.658 118.829 368.086 C 120.228 369.507 120.928 371.342 120.928 373.591 Z M 152.963 375.898 C 152.963 377.663 152.226 379.014 150.752 379.951 C 149.607 380.7 148.189 381.29 146.498 381.719 C 144.807 382.149 142.941 382.363 140.898 382.363 C 138.96 382.363 137.198 382.149 135.612 381.719 C 134.033 381.29 132.679 380.607 131.549 379.67 C 130.42 378.733 129.54 377.55 128.912 376.121 C 128.283 374.7 127.969 372.978 127.969 370.956 L 127.969 354.594 C 128.366 354.477 128.886 354.364 129.529 354.255 C 130.173 354.145 130.891 354.091 131.684 354.091 C 133.3 354.091 134.46 354.372 135.163 354.934 C 135.859 355.496 136.207 356.562 136.207 358.131 L 136.207 370.897 C 136.207 372.584 136.622 373.79 137.453 374.516 C 138.276 375.25 139.443 375.617 140.954 375.617 C 141.882 375.617 142.66 375.531 143.288 375.36 C 143.917 375.196 144.396 375.02 144.725 374.833 L 144.725 354.594 C 145.084 354.477 145.585 354.364 146.229 354.255 C 146.872 354.145 147.591 354.091 148.384 354.091 C 150 354.091 151.167 354.372 151.885 354.934 C 152.603 355.496 152.963 356.562 152.963 358.131 L 152.963 375.898 Z M 172.017 376.062 C 172.802 376.062 173.584 375.98 174.362 375.816 C 175.133 375.645 175.716 375.43 176.113 375.172 L 176.113 369.995 L 171.691 370.394 C 170.539 370.503 169.615 370.772 168.919 371.202 C 168.216 371.631 167.864 372.279 167.864 373.146 C 167.864 374.044 168.19 374.754 168.841 375.278 C 169.484 375.801 170.543 376.062 172.017 376.062 Z M 171.691 353.634 C 173.562 353.634 175.26 353.833 176.786 354.231 C 178.313 354.622 179.615 355.231 180.692 356.058 C 181.769 356.878 182.604 357.924 183.195 359.197 C 183.786 360.478 184.081 361.977 184.081 363.694 L 184.081 376.402 C 184.081 377.378 183.838 378.155 183.352 378.733 C 182.865 379.318 182.282 379.818 181.601 380.232 C 180.486 380.942 179.121 381.485 177.505 381.86 C 175.889 382.234 174.059 382.422 172.017 382.422 C 168.313 382.422 165.369 381.68 163.184 380.197 C 160.992 378.721 159.896 376.464 159.896 373.427 C 159.896 370.843 160.633 368.875 162.107 367.524 C 163.573 366.173 165.833 365.33 168.886 364.994 L 176.057 364.21 L 176.057 363.589 C 176.057 362.387 175.589 361.504 174.654 360.942 C 173.719 360.38 172.372 360.099 170.614 360.099 C 169.252 360.099 167.913 360.267 166.596 360.602 C 165.287 360.946 164.112 361.34 163.072 361.785 C 162.638 361.489 162.272 361.032 161.972 360.415 C 161.665 359.79 161.512 359.123 161.512 358.412 C 161.512 356.765 162.339 355.586 163.992 354.875 C 165.032 354.461 166.244 354.153 167.629 353.95 C 169.005 353.739 170.359 353.634 171.691 353.634 Z M 197.156 381.918 C 195.54 381.918 194.38 381.645 193.677 381.098 C 192.981 380.552 192.633 379.494 192.633 377.924 L 192.633 344.92 C 192.992 344.811 193.501 344.698 194.159 344.58 C 194.825 344.471 195.555 344.416 196.348 344.416 C 197.927 344.416 199.075 344.698 199.793 345.26 C 200.512 345.822 200.871 346.892 200.871 348.469 L 200.871 381.461 C 200.474 381.579 199.954 381.684 199.311 381.778 C 198.66 381.871 197.941 381.918 197.156 381.918 Z M 231.392 364.491 C 231.392 360.852 230.539 358.143 228.834 356.363 C 227.128 354.582 224.913 353.692 222.19 353.692 C 221.539 353.692 220.925 353.712 220.349 353.751 C 219.78 353.79 219.208 353.864 218.632 353.973 L 218.632 374.891 C 219.096 375 219.661 375.082 220.327 375.137 C 220.992 375.192 221.628 375.219 222.234 375.219 C 225.04 375.219 227.27 374.329 228.923 372.549 C 230.569 370.768 231.392 368.083 231.392 364.491 Z M 240.124 364.374 C 240.124 367.372 239.694 369.995 238.833 372.244 C 237.973 374.493 236.761 376.367 235.197 377.866 C 233.633 379.365 231.748 380.489 229.541 381.239 C 227.333 381.989 224.883 382.363 222.19 382.363 C 221.576 382.363 220.884 382.344 220.113 382.305 C 219.343 382.266 218.553 382.199 217.745 382.106 C 216.937 382.012 216.118 381.883 215.288 381.719 C 214.465 381.547 213.713 381.333 213.032 381.075 C 211.161 380.357 210.226 379.08 210.226 377.245 L 210.226 350.483 C 210.226 349.734 210.413 349.156 210.787 348.75 C 211.169 348.336 211.719 347.996 212.437 347.731 C 213.911 347.247 215.471 346.931 217.117 346.782 C 218.77 346.626 220.282 346.548 221.651 346.548 C 224.412 346.548 226.926 346.907 229.193 347.626 C 231.452 348.336 233.39 349.429 235.006 350.905 C 236.622 352.388 237.879 354.247 238.777 356.48 C 239.675 358.705 240.124 361.336 240.124 364.374 Z M 251.744 374.774 C 250.913 372.9 249.971 370.456 248.916 367.442 C 247.853 364.421 246.75 360.513 245.605 355.719 C 246.031 355.227 246.63 354.805 247.401 354.454 C 248.179 354.094 249.017 353.915 249.915 353.915 C 251.059 353.915 251.991 354.169 252.709 354.676 C 253.427 355.184 253.985 356.113 254.381 357.464 C 255.174 360.196 255.975 362.894 256.783 365.557 C 257.591 368.219 258.407 370.897 259.23 373.591 L 259.443 373.591 C 259.877 372.318 260.326 370.925 260.79 369.41 C 261.261 367.887 261.71 366.31 262.136 364.678 C 262.57 363.054 262.974 361.407 263.348 359.736 C 263.73 358.065 264.063 356.445 264.347 354.875 C 265.462 354.235 266.629 353.915 267.849 353.915 C 269.001 353.915 269.989 354.176 270.812 354.7 C 271.635 355.231 272.046 356.093 272.046 357.288 C 272.046 358.639 271.822 360.353 271.373 362.43 C 270.924 364.514 270.333 366.689 269.599 368.953 C 268.866 371.225 268.039 373.474 267.119 375.699 C 266.206 377.932 265.264 379.892 264.291 381.579 C 262.278 385.139 260.464 387.79 258.848 389.531 C 257.232 391.272 255.601 392.143 253.955 392.143 C 252.623 392.143 251.527 391.721 250.666 390.878 C 249.806 390.035 249.286 388.957 249.107 387.645 C 250.251 386.599 251.445 385.373 252.687 383.968 C 253.921 382.562 254.972 381.145 255.84 379.716 C 255.227 379.529 254.587 379.107 253.921 378.452 C 253.255 377.796 252.529 376.57 251.744 374.774 Z M 295.47 364.257 C 295.47 362.945 295.093 361.973 294.337 361.34 C 293.581 360.7 292.575 360.38 291.318 360.38 C 290.458 360.38 289.668 360.493 288.95 360.72 C 288.232 360.946 287.566 361.227 286.952 361.563 L 286.952 381.461 C 286.593 381.579 286.092 381.684 285.448 381.778 C 284.797 381.871 284.079 381.918 283.294 381.918 C 281.677 381.918 280.51 381.645 279.792 381.098 C 279.074 380.552 278.715 379.494 278.715 377.924 L 278.715 360.556 C 278.715 359.58 278.913 358.791 279.309 358.19 C 279.699 357.589 280.252 357.026 280.97 356.503 C 282.123 355.644 283.604 354.949 285.415 354.419 C 287.233 353.895 289.238 353.634 291.43 353.634 C 295.343 353.634 298.366 354.536 300.498 356.339 C 302.638 358.135 303.708 360.7 303.708 364.034 L 303.708 381.461 C 303.311 381.579 302.791 381.684 302.148 381.778 C 301.497 381.871 300.779 381.918 299.993 381.918 C 298.377 381.918 297.217 381.645 296.514 381.098 C 295.818 380.552 295.47 379.494 295.47 377.924 L 295.47 364.257 Z M 322.816 376.062 C 323.602 376.062 324.383 375.98 325.162 375.816 C 325.932 375.645 326.516 375.43 326.912 375.172 L 326.912 369.995 L 322.491 370.394 C 321.338 370.503 320.414 370.772 319.718 371.202 C 319.015 371.631 318.664 372.279 318.664 373.146 C 318.664 374.044 318.989 374.754 319.64 375.278 C 320.283 375.801 321.342 376.062 322.816 376.062 Z M 322.491 353.634 C 324.361 353.634 326.059 353.833 327.586 354.231 C 329.112 354.622 330.414 355.231 331.491 356.058 C 332.569 356.878 333.403 357.924 333.994 359.197 C 334.585 360.478 334.881 361.977 334.881 363.694 L 334.881 376.402 C 334.881 377.378 334.637 378.155 334.151 378.733 C 333.665 379.318 333.081 379.818 332.4 380.232 C 331.286 380.942 329.92 381.485 328.304 381.86 C 326.688 382.234 324.859 382.422 322.816 382.422 C 319.112 382.422 316.168 381.68 313.984 380.197 C 311.791 378.721 310.695 376.464 310.695 373.427 C 310.695 370.843 311.432 368.875 312.906 367.524 C 314.373 366.173 316.632 365.33 319.685 364.994 L 326.856 364.21 L 326.856 363.589 C 326.856 362.387 326.389 361.504 325.453 360.942 C 324.518 360.38 323.171 360.099 321.413 360.099 C 320.051 360.099 318.712 360.267 317.395 360.602 C 316.086 360.946 314.911 361.34 313.871 361.785 C 313.437 361.489 313.071 361.032 312.772 360.415 C 312.465 359.79 312.311 359.123 312.311 358.412 C 312.311 356.765 313.138 355.586 314.792 354.875 C 315.832 354.461 317.044 354.153 318.428 353.95 C 319.805 353.739 321.159 353.634 322.491 353.634 Z M 382.32 363.753 L 382.32 381.461 C 381.923 381.579 381.403 381.684 380.76 381.778 C 380.116 381.871 379.398 381.918 378.605 381.918 C 376.989 381.918 375.829 381.645 375.126 381.098 C 374.43 380.552 374.082 379.494 374.082 377.924 L 374.082 363.975 C 374.082 362.742 373.757 361.836 373.106 361.258 C 372.462 360.673 371.583 360.38 370.468 360.38 C 369.75 360.38 369.077 360.513 368.448 360.778 C 367.82 361.036 367.255 361.372 366.754 361.785 C 366.791 361.973 366.817 362.16 366.832 362.348 C 366.855 362.535 366.866 362.722 366.866 362.91 L 366.866 381.461 C 366.469 381.579 365.945 381.684 365.295 381.778 C 364.651 381.871 363.933 381.918 363.14 381.918 C 361.524 381.918 360.368 381.645 359.672 381.098 C 358.969 380.552 358.617 379.494 358.617 377.924 L 358.617 363.975 C 358.617 362.742 358.258 361.836 357.54 361.258 C 356.821 360.673 355.942 360.38 354.902 360.38 C 354.146 360.38 353.466 360.501 352.86 360.743 C 352.246 360.993 351.741 361.227 351.345 361.446 L 351.345 381.461 C 350.985 381.579 350.484 381.684 349.841 381.778 C 349.19 381.871 348.471 381.918 347.686 381.918 C 346.07 381.918 344.903 381.645 344.184 381.098 C 343.466 380.552 343.107 379.494 343.107 377.924 L 343.107 360.556 C 343.107 359.58 343.305 358.791 343.702 358.19 C 344.091 357.589 344.644 357.026 345.363 356.503 C 346.552 355.644 348.019 354.949 349.762 354.419 C 351.498 353.895 353.32 353.634 355.228 353.634 C 356.731 353.634 358.157 353.849 359.504 354.278 C 360.85 354.715 362.081 355.383 363.196 356.281 C 364.273 355.531 365.497 354.903 366.866 354.395 C 368.227 353.888 369.844 353.634 371.714 353.634 C 373.113 353.634 374.449 353.813 375.721 354.173 C 377 354.524 378.122 355.106 379.087 355.918 C 380.06 356.722 380.842 357.768 381.433 359.056 C 382.024 360.353 382.32 361.918 382.32 363.753 Z M 399.107 358.354 L 399.107 381.461 C 398.748 381.579 398.246 381.684 397.603 381.778 C 396.959 381.871 396.241 381.918 395.448 381.918 C 393.832 381.918 392.672 381.645 391.969 381.098 C 391.273 380.552 390.925 379.494 390.925 377.924 L 390.925 354.817 C 391.284 354.707 391.786 354.594 392.429 354.477 C 393.08 354.368 393.798 354.313 394.584 354.313 C 396.2 354.313 397.36 354.594 398.063 355.156 C 398.759 355.719 399.107 356.784 399.107 358.354 Z M 390.443 346.724 C 390.443 345.451 390.862 344.362 391.7 343.456 C 392.545 342.558 393.652 342.109 395.022 342.109 C 396.383 342.109 397.487 342.558 398.332 343.456 C 399.178 344.362 399.601 345.451 399.601 346.724 C 399.601 348.035 399.178 349.14 398.332 350.038 C 397.487 350.936 396.383 351.385 395.022 351.385 C 393.652 351.385 392.545 350.936 391.7 350.038 C 390.862 349.14 390.443 348.035 390.443 346.724 Z M 421.824 360.438 C 419.886 360.438 418.237 361.087 416.875 362.383 C 415.506 363.671 414.821 365.572 414.821 368.086 C 414.821 370.593 415.476 372.467 416.785 373.708 C 418.102 374.942 419.763 375.559 421.768 375.559 C 422.92 375.559 423.938 375.399 424.821 375.078 C 425.696 374.766 426.44 374.438 427.054 374.095 C 427.66 374.587 428.135 375.102 428.479 375.641 C 428.823 376.187 428.995 376.855 428.995 377.643 C 428.995 379.064 428.277 380.208 426.841 381.075 C 425.404 381.934 423.41 382.363 420.859 382.363 C 418.704 382.363 416.736 382.063 414.956 381.461 C 413.182 380.86 411.667 379.962 410.41 378.768 C 409.153 377.565 408.181 376.074 407.492 374.294 C 406.812 372.514 406.471 370.444 406.471 368.086 C 406.471 365.65 406.849 363.53 407.605 361.727 C 408.36 359.931 409.385 358.432 410.68 357.229 C 411.967 356.035 413.474 355.137 415.203 354.536 C 416.923 353.934 418.738 353.634 420.646 353.634 C 423.122 353.634 425.067 354.102 426.482 355.039 C 427.903 355.976 428.614 357.159 428.614 358.588 C 428.614 359.259 428.461 359.876 428.154 360.438 C 427.847 361.001 427.48 361.489 427.054 361.902 C 426.403 361.528 425.64 361.188 424.764 360.884 C 423.882 360.587 422.901 360.438 421.824 360.438 Z M 457.362 373.591 C 457.362 376.363 456.375 378.53 454.4 380.091 C 452.424 381.645 449.514 382.422 445.668 382.422 C 444.164 382.422 442.791 382.309 441.549 382.082 C 440.315 381.856 439.249 381.52 438.351 381.075 C 437.453 380.622 436.75 380.06 436.241 379.388 C 435.74 378.709 435.489 377.921 435.489 377.023 C 435.489 376.195 435.65 375.492 435.972 374.914 C 436.301 374.337 436.716 373.86 437.217 373.486 C 438.257 374.118 439.443 374.68 440.775 375.172 C 442.099 375.656 443.641 375.898 445.399 375.898 C 447.95 375.898 449.226 375.149 449.226 373.65 C 449.226 373.009 449.001 372.521 448.552 372.186 C 448.104 371.85 447.34 371.549 446.263 371.284 L 444.108 370.78 C 441.168 370.148 438.979 369.164 437.543 367.829 C 436.106 366.501 435.388 364.639 435.388 362.242 C 435.388 359.58 436.421 357.471 438.486 355.918 C 440.551 354.356 443.323 353.575 446.802 353.575 C 448.096 353.575 449.319 353.681 450.472 353.891 C 451.616 354.094 452.604 354.403 453.434 354.817 C 454.257 355.231 454.912 355.746 455.398 356.363 C 455.885 356.98 456.128 357.702 456.128 358.529 C 456.128 359.279 455.982 359.943 455.69 360.52 C 455.406 361.106 455.028 361.586 454.557 361.961 C 454.272 361.774 453.853 361.567 453.3 361.34 C 452.739 361.114 452.136 360.907 451.493 360.72 C 450.842 360.532 450.157 360.384 449.439 360.275 C 448.721 360.157 448.059 360.099 447.453 360.099 C 446.196 360.099 445.216 360.278 444.512 360.638 C 443.816 360.989 443.468 361.524 443.468 362.242 C 443.468 362.765 443.663 363.175 444.052 363.472 C 444.449 363.776 445.167 364.057 446.207 364.315 L 448.261 364.819 C 451.53 365.568 453.865 366.658 455.264 368.086 C 456.663 369.507 457.362 371.342 457.362 373.591 Z"/></svg>