<svg xmlns="http://www.w3.org/2000/svg" width="100.001" height="44.558" viewBox="-33.805 37.789 100.001 44.558"><defs><linearGradient id="gradient-1" x1="1830" x2="1830" y1="2620" y2="7380" gradientUnits="userSpaceOnUse"><stop offset="0" style="stop-color:rgb(100% 0% 0%)"/><stop offset="1" style="stop-color:rgb(63.954% 0% 0%)"/></linearGradient><linearGradient id="gradient-0" x1="1830" x2="1830" y1="2620" y2="7380" gradientUnits="userSpaceOnUse"><stop offset="0" style="stop-color:#bada55"/><stop offset="1" style="stop-color:#758d29"/></linearGradient><linearGradient id="gradient-2" x1="5000" x2="5000" y1="2620" y2="7380" gradientUnits="userSpaceOnUse"><stop offset="0" style="stop-color:rgb(100% 0% 0%)"/><stop offset="1" style="stop-color:rgb(63.954% 0% 0%)"/></linearGradient><linearGradient id="gradient-3" x1="8170" x2="8170" y1="2620" y2="7380" gradientUnits="userSpaceOnUse"><stop offset="0" style="stop-color:rgb(100% 0% 0%)"/><stop offset="1" style="stop-color:rgb(63.954% 0% 0%)"/></linearGradient></defs><g fill="#000" stroke="none"><path d="M2620 7115 l0 -265 -265 0 -265 0 0 -265 0 -265 -260 0 -260 0 -2 -262 -3 -263 -262 -3 -263 -2 -2 -263 -3 -262 -262 -3 -263 -2 0 -260 0 -260 263 -2 262 -3 3 -262 2 -263 263 -2 262 -3 3 -262 2 -263 260 0 260 0 0 -265 0 -265 265 0 265 0 0 -265 0 -265 265 0 265 0 0 2380 0 2380 -265 0 -265 0 0 -265z" style="stroke:url(#gradient-0);fill:url(#gradient-1)" transform="matrix(0.011136000044643879, 0, 0, -0.009361001662909985, -39.484649658203125, 106.87328338623047)"/><path d="M5790 7115 l0 -265 -265 0 -265 0 0 -265 0 -265 -260 0 -260 0 -2 -262 -3 -263 -262 -3 -263 -2 -2 -263 -3 -262 -262 -3 -263 -2 0 -260 0 -260 263 -2 262 -3 3 -262 2 -263 263 -2 262 -3 3 -262 2 -263 260 0 260 0 0 -265 0 -265 265 0 265 0 0 -265 0 -265 265 0 265 0 0 2380 0 2380 -265 0 -265 0 0 -265z" style="fill:url(#gradient-2)" transform="matrix(0.011136000044643879, 0, 0, -0.009361001662909985, -39.484649658203125, 106.87328338623047)"/><path d="M8960 7115 l0 -265 -262 -2 -263 -3 -3 -262 -2 -263 -260 0 -260 0 -2 -262 -3 -263 -262 -3 -263 -2 -2 -263 -3 -262 -262 -3 -263 -2 0 -260 0 -260 263 -2 262 -3 3 -262 2 -263 263 -2 262 -3 3 -262 2 -263 260 0 260 0 2 -262 3 -263 263 -3 262 -2 0 -265 0 -265 265 0 265 0 0 2380 0 2380 -265 0 -265 0 0 -265z" style="fill:url(#gradient-3)" transform="matrix(0.011136000044643879, 0, 0, -0.009361001662909985, -39.484649658203125, 106.87328338623047)"/></g></svg>