<?xml version="1.0" standalone="no"?>
<!DOCTYPE svg PUBLIC "-//W3C//DTD SVG 20010904//EN"
 "http://www.w3.org/TR/2001/REC-SVG-20010904/DTD/svg10.dtd">
<svg version="1.0" xmlns="http://www.w3.org/2000/svg"
 width="1304.000000pt" height="1304.000000pt" viewBox="0 0 1304.000000 1304.000000"
 preserveAspectRatio="xMidYMid meet">
<metadata>
Created by potrace 1.14, written by Peter Selinger 2001-2017
</metadata>
<g transform="translate(0.000000,1304.000000) scale(0.100000,-0.100000)"
fill="#000000" stroke="none">
<path d="M522 10760 c-46 -21 -71 -45 -99 -95 -13 -23 -18 -60 -20 -154 -1
-68 -4 -125 -6 -127 -2 -2 -60 -5 -128 -7 -137 -4 -162 -12 -215 -69 -95 -103
-53 -274 80 -325 17 -6 84 -12 149 -12 116 -1 124 -3 117 -36 -2 -13 -2 -23 3
-130 4 -102 13 -128 53 -169 50 -50 101 -69 165 -63 70 6 101 24 157 92 22 26
32 87 32 191 l0 113 85 3 c47 2 85 -1 85 -5 0 -5 5 -5 10 -2 6 4 25 8 44 10
64 6 136 60 161 123 20 48 18 117 -4 159 -26 48 -38 62 -80 92 -31 22 -48 25
-169 30 l-134 6 0 115 c1 90 -3 123 -17 155 -49 107 -165 152 -269 105z"/>
<path d="M2640 9868 c-20 -10 -48 -31 -61 -46 -47 -52 -56 -88 -55 -215 1 -71
-3 -117 -9 -118 -5 0 -62 -2 -125 -3 -124 -3 -149 -9 -198 -50 -109 -92 -82
-284 48 -336 50 -21 56 -21 155 -21 142 0 130 12 131 -131 0 -159 23 -207 119
-252 85 -40 192 -9 250 73 29 41 30 46 33 176 l4 133 100 -2 c118 -2 171 10
220 48 98 74 103 221 11 308 -44 41 -79 51 -203 54 -63 1 -118 3 -122 3 -5 1
-8 54 -8 119 0 144 -16 185 -92 248 -39 32 -145 38 -198 12z"/>
<path d="M533 8621 c-22 -9 -52 -27 -67 -41 -48 -45 -58 -74 -68 -200 0 -3 1
-9 2 -15 4 -23 1 -118 -5 -124 -4 -3 -57 -7 -118 -8 -138 -2 -137 -2 -191 -40
-122 -86 -109 -266 24 -341 41 -23 56 -25 168 -26 124 0 130 -2 123 -40 -7
-40 5 -208 18 -240 6 -16 26 -43 44 -60 94 -93 246 -74 317 40 26 40 28 58 29
189 l1 111 113 0 c135 1 180 14 228 65 46 48 58 82 55 153 -3 70 -38 124 -102
162 -43 25 -54 27 -170 28 l-124 1 -1 110 c-1 144 -6 166 -54 223 -50 59 -148
82 -222 53z"/>
<path d="M4108 8585 c-3 -3 -65 -8 -139 -10 -133 -6 -147 -7 -244 -19 -27 -4
-66 -9 -85 -11 -45 -5 -279 -53 -289 -59 -4 -3 -21 -7 -38 -10 -33 -6 -195
-56 -263 -81 -25 -9 -49 -18 -55 -19 -5 -2 -32 -13 -58 -24 -27 -12 -50 -22
-53 -22 -5 0 -117 -50 -134 -61 -24 -14 -80 -38 -84 -36 -2 1 -12 -5 -22 -13
-11 -9 -37 -25 -59 -35 -22 -11 -42 -23 -45 -26 -3 -3 -16 -12 -30 -19 -31
-16 -193 -121 -200 -129 -3 -4 -23 -18 -45 -32 -22 -14 -60 -43 -85 -63 -25
-20 -63 -51 -84 -69 -122 -99 -295 -273 -414 -415 -21 -24 -130 -170 -175
-232 -138 -194 -285 -489 -378 -758 -38 -111 -91 -306 -104 -382 -3 -19 -8
-42 -10 -50 -2 -8 -7 -31 -9 -50 -3 -19 -7 -44 -9 -55 -3 -11 -8 -47 -11 -80
-4 -33 -9 -73 -11 -90 -3 -16 -7 -77 -10 -134 -3 -57 -7 -106 -9 -108 -2 -3 0
-18 4 -34 5 -16 5 -31 0 -34 -5 -3 -5 -16 0 -30 6 -15 6 -27 -1 -30 -5 -4 -6
-11 -3 -17 4 -5 8 -49 10 -97 2 -47 5 -106 8 -131 16 -150 19 -176 22 -182 3
-4 7 -26 10 -50 8 -64 11 -77 29 -153 9 -38 18 -77 20 -85 2 -8 4 -15 5 -15 1
0 3 -11 5 -25 2 -14 13 -56 26 -95 12 -38 23 -74 25 -80 21 -95 227 -549 278
-615 7 -8 21 -32 31 -52 11 -21 23 -38 27 -38 5 0 8 -5 8 -11 0 -23 211 -304
307 -409 156 -170 282 -285 453 -414 52 -39 97 -74 98 -78 2 -5 7 -8 12 -8 5
0 41 -22 82 -48 158 -104 372 -214 548 -281 47 -18 94 -37 105 -41 55 -23 283
-88 370 -106 139 -28 182 -35 220 -40 17 -1 46 -5 65 -8 169 -27 667 -28 795
-2 11 2 56 9 100 16 44 7 85 13 90 14 264 55 472 120 661 206 38 17 70 31 72
30 12 -2 323 168 333 182 3 6 8 8 10 7 13 -9 300 200 419 306 98 86 289 286
365 380 44 55 83 102 88 103 4 2 7 8 7 13 0 5 17 32 38 59 99 130 126 191 96
219 -18 18 -85 51 -103 51 -10 0 -21 3 -25 7 -16 16 -109 30 -183 27 -78 -3
-176 -28 -236 -61 -43 -24 -136 -101 -166 -138 -37 -46 -242 -246 -281 -276
-19 -15 -48 -39 -65 -53 -16 -15 -96 -71 -177 -126 -151 -101 -368 -213 -518
-268 -47 -17 -94 -34 -105 -38 -19 -7 -30 -10 -57 -17 -7 -2 -33 -9 -58 -16
-43 -13 -53 -15 -101 -26 -11 -2 -28 -6 -37 -9 -28 -9 -68 -16 -167 -31 -27
-4 -58 -9 -68 -11 -130 -23 -546 -22 -671 2 -11 2 -38 6 -61 9 -22 3 -60 10
-85 15 -25 5 -56 12 -70 14 -119 20 -380 107 -530 178 -25 12 -48 21 -52 20
-5 -1 -8 3 -8 9 0 5 -4 8 -9 5 -5 -3 -14 1 -21 9 -7 8 -17 15 -23 15 -31 0
-427 260 -427 281 0 4 -9 11 -20 14 -21 7 -306 285 -349 340 -12 17 -48 64
-79 105 -32 41 -60 77 -64 78 -5 2 -8 8 -8 13 0 5 -15 31 -33 57 -34 48 -117
190 -117 199 0 3 -9 18 -21 34 -11 16 -17 29 -14 29 4 0 -2 15 -13 33 -10 17
-34 68 -52 112 -18 44 -39 94 -45 110 -12 27 -24 63 -32 90 -1 6 -12 42 -23
80 -12 39 -23 77 -25 85 -1 8 -8 33 -14 56 -6 22 -13 56 -15 75 -3 19 -5 34
-6 34 -4 0 -29 173 -36 255 -13 137 -7 449 11 560 2 14 7 45 10 70 10 75 15
102 31 170 9 36 17 72 19 80 2 8 4 15 5 15 1 0 3 10 6 23 5 28 54 183 63 197
3 6 7 17 8 26 1 8 9 29 18 45 8 16 15 32 15 35 0 4 17 42 37 85 20 44 37 81
38 84 1 6 31 60 56 105 10 17 23 42 29 58 7 15 16 27 21 27 5 0 9 5 9 12 0 6
11 26 25 44 14 18 25 36 25 39 0 4 10 20 23 35 12 15 29 37 37 50 8 12 20 28
25 34 6 6 23 29 40 51 70 94 246 277 349 363 38 31 74 63 82 70 7 6 17 12 23
12 6 0 11 4 11 8 0 10 143 110 240 168 153 92 370 191 545 247 148 48 344 91
465 103 25 2 72 7 105 11 126 13 500 5 565 -12 8 -3 35 -7 60 -10 110 -13 227
-42 395 -96 50 -16 97 -31 105 -33 62 -17 263 -110 372 -173 83 -47 289 -180
298 -192 3 -4 39 -34 80 -66 68 -54 240 -220 316 -306 17 -18 58 -70 93 -114
34 -44 69 -88 77 -98 8 -9 14 -21 14 -26 0 -4 9 -16 20 -26 11 -10 20 -22 20
-26 0 -5 16 -33 35 -63 37 -58 145 -269 145 -284 0 -5 7 -23 15 -39 21 -43 73
-194 80 -234 3 -18 11 -40 18 -48 7 -8 11 -16 9 -18 -3 -3 7 -54 24 -128 1 -5
5 -23 8 -39 3 -16 10 -52 15 -80 15 -74 30 -169 36 -226 2 -14 4 -25 5 -25 0
0 3 -18 5 -40 8 -79 14 -131 19 -165 3 -19 8 -62 10 -95 3 -33 6 -60 7 -60 0
0 3 -18 5 -39 4 -48 10 -96 24 -201 6 -44 13 -98 15 -120 3 -22 8 -51 10 -65
3 -14 7 -36 10 -50 22 -148 70 -341 124 -505 46 -139 78 -214 154 -365 58
-113 122 -224 142 -246 5 -6 19 -27 30 -47 11 -20 23 -37 27 -37 5 0 8 -6 8
-14 0 -8 3 -16 8 -18 4 -1 39 -44 79 -95 107 -137 107 -136 263 -293 136 -136
180 -178 260 -240 18 -14 38 -31 45 -37 8 -7 18 -13 24 -13 6 0 11 -4 11 -9 0
-8 233 -171 245 -171 4 0 19 -8 33 -19 63 -44 267 -148 412 -209 89 -37 266
-101 300 -107 8 -2 15 -4 15 -5 0 -1 7 -3 15 -5 8 -2 31 -9 50 -14 57 -16 153
-39 185 -45 17 -2 71 -12 120 -21 50 -9 110 -18 135 -20 25 -2 45 -4 45 -5 0
-12 503 -18 625 -8 47 4 100 9 118 12 18 3 52 8 75 12 23 3 51 7 62 9 162 24
414 93 590 161 108 42 100 38 255 113 177 86 206 102 369 210 46 31 91 61 100
66 9 6 18 12 21 15 3 3 41 34 85 68 171 134 335 294 475 462 19 23 40 47 45
54 6 6 22 27 35 46 13 19 27 37 31 40 3 3 41 57 82 120 42 63 80 120 84 125 5
6 16 26 25 45 10 19 27 51 39 70 28 49 62 114 62 120 -1 3 9 23 21 45 65 115
192 476 222 628 2 10 5 26 8 35 7 23 35 178 41 227 3 22 7 49 10 60 19 87 27
543 13 680 -4 33 -9 87 -13 120 -3 33 -8 71 -10 85 -3 14 -8 41 -11 60 -3 19
-14 76 -25 125 -11 50 -22 99 -24 109 -15 68 -65 222 -112 350 -49 129 -195
438 -225 473 -18 22 -78 125 -78 134 0 5 -4 9 -10 9 -5 0 -10 6 -10 14 0 8 -4
16 -8 18 -5 2 -23 26 -42 53 -18 28 -36 52 -40 55 -3 3 -17 21 -30 40 -13 19
-27 37 -30 40 -3 3 -25 30 -50 60 -154 190 -383 403 -595 553 -44 31 -85 60
-91 64 -37 28 -188 115 -334 194 -14 7 -27 13 -30 14 -3 0 -30 12 -60 26 -30
15 -73 34 -95 44 -22 9 -48 21 -57 26 -10 5 -27 9 -37 9 -11 0 -22 4 -25 9 -3
4 -31 16 -63 26 -32 10 -69 22 -83 28 -14 5 -32 11 -40 13 -8 1 -40 10 -70 19
-30 9 -64 18 -75 20 -11 1 -38 8 -60 13 -60 16 -82 21 -205 41 -146 24 -198
29 -380 37 -69 3 -129 6 -135 6 -62 -1 -295 -13 -311 -16 -12 -2 -45 -7 -75
-11 -50 -6 -172 -26 -244 -40 -16 -3 -52 -11 -80 -17 -27 -7 -53 -13 -57 -14
-5 -1 -9 -2 -10 -3 -2 -2 -13 -4 -26 -7 -29 -5 -140 -40 -212 -66 -30 -11 -62
-21 -70 -23 -39 -8 -301 -125 -311 -138 -3 -5 -9 -8 -13 -8 -10 2 -128 -60
-143 -75 -8 -8 -20 -14 -26 -14 -7 0 -36 -16 -64 -35 -29 -19 -55 -35 -58 -35
-3 0 -11 -4 -18 -10 -7 -5 -66 -49 -132 -96 -66 -47 -130 -96 -141 -107 -12
-12 -39 -35 -60 -52 -83 -65 -332 -322 -398 -411 -16 -21 -36 -46 -44 -54 -20
-22 -152 -209 -152 -216 0 -3 -13 -25 -30 -48 -27 -41 -28 -45 -12 -58 16 -14
88 -49 138 -68 51 -20 223 -34 249 -21 5 3 16 6 25 7 100 11 245 97 319 189
32 39 224 230 276 274 141 119 333 246 508 335 103 52 266 123 302 131 6 1 19
5 30 9 11 5 37 14 59 22 21 8 41 13 44 10 2 -3 14 0 26 6 11 7 26 13 33 14 7
1 40 9 75 18 62 15 89 21 157 32 18 3 43 8 55 10 141 32 591 36 741 8 10 -2
37 -6 60 -9 22 -3 74 -13 115 -22 41 -8 88 -17 103 -19 16 -2 34 -7 40 -11 7
-4 20 -9 30 -10 21 -3 143 -41 172 -53 11 -4 47 -18 80 -31 33 -12 85 -34 115
-48 30 -14 57 -25 60 -26 3 0 21 -9 40 -19 19 -11 64 -34 100 -53 36 -19 72
-41 81 -49 8 -8 19 -14 23 -14 11 0 176 -114 176 -122 0 -4 6 -8 13 -8 7 0 23
-10 37 -22 14 -13 48 -41 75 -63 79 -63 355 -342 355 -359 0 -3 12 -19 28 -35
15 -16 49 -62 77 -102 27 -41 52 -76 55 -79 5 -4 19 -28 82 -135 22 -37 118
-233 147 -297 24 -55 98 -274 105 -311 2 -15 7 -30 9 -34 4 -7 18 -68 42 -187
3 -10 7 -37 9 -60 3 -22 8 -53 11 -68 14 -74 28 -500 16 -522 -2 -5 -6 -30 -7
-55 -3 -58 -16 -160 -29 -226 -2 -11 -7 -33 -10 -50 -3 -16 -7 -40 -10 -52 -3
-13 -6 -26 -6 -30 -1 -5 -8 -30 -16 -57 -8 -27 -16 -57 -18 -65 -5 -24 -50
-158 -78 -231 -57 -151 -216 -449 -284 -535 -5 -5 -26 -35 -48 -65 -22 -30
-44 -60 -50 -66 -5 -7 -26 -31 -45 -55 -44 -57 -272 -284 -329 -329 -24 -19
-48 -39 -55 -45 -34 -30 -127 -95 -136 -95 -5 0 -10 -3 -10 -8 0 -4 -33 -27
-72 -52 -40 -24 -75 -47 -78 -50 -6 -7 -273 -138 -310 -153 -14 -5 -33 -13
-42 -18 -10 -5 -46 -18 -80 -30 -35 -11 -70 -23 -78 -26 -27 -10 -33 -12 -166
-47 -72 -19 -153 -37 -180 -40 -27 -4 -58 -9 -69 -11 -152 -34 -594 -39 -739
-9 -12 2 -36 6 -53 9 -18 2 -48 7 -65 10 -18 3 -42 8 -53 10 -11 2 -20 4 -20
5 0 2 -20 6 -70 14 -16 3 -68 17 -115 31 -47 15 -92 28 -100 30 -80 20 -343
139 -480 218 -82 47 -254 160 -276 182 -6 5 -28 24 -49 40 -147 114 -351 324
-466 480 -24 33 -47 62 -51 63 -5 2 -8 9 -8 16 0 7 -9 21 -20 31 -11 10 -20
22 -20 26 0 5 -18 37 -40 71 -22 35 -40 68 -40 75 0 6 -3 13 -7 15 -8 3 -53
92 -85 168 -57 131 -127 345 -138 422 -1 4 -6 22 -11 40 -5 18 -12 49 -15 68
-3 19 -7 42 -9 50 -9 31 -18 86 -17 102 0 10 -4 20 -9 23 -5 4 -7 10 -4 16 3
5 1 35 -4 66 -6 32 -13 85 -17 118 -3 33 -8 71 -9 85 -1 14 -5 43 -8 65 -4 22
-9 67 -12 100 -3 33 -8 78 -11 100 -3 22 -7 63 -9 90 -2 28 -5 50 -5 50 -2 0
-7 33 -15 95 -4 30 -9 64 -10 75 -2 11 -7 40 -11 65 -11 80 -18 118 -39 215
-8 39 -17 81 -20 94 -15 78 -89 310 -136 423 -30 73 -123 263 -159 323 -16 28
-37 63 -46 80 -9 16 -23 35 -30 43 -8 7 -14 17 -14 22 0 5 -6 15 -13 22 -6 7
-30 39 -51 71 -22 31 -44 57 -49 57 -6 0 -8 3 -4 6 3 3 -3 15 -13 27 -10 12
-28 33 -39 47 -12 14 -36 43 -53 65 -77 93 -351 359 -437 425 -19 14 -47 37
-65 51 -158 130 -519 337 -721 414 -38 14 -79 30 -90 35 -11 5 -49 19 -85 30
-36 12 -72 25 -80 28 -18 6 -5 2 -153 42 -64 17 -130 33 -145 35 -15 2 -65 11
-112 19 -80 14 -144 23 -215 32 -16 1 -93 6 -169 9 -76 3 -142 8 -146 10 -4 2
-9 2 -12 0z"/>
<path d="M3945 7170 c-211 -58 -369 -208 -429 -410 -27 -87 -29 -117 -30 -449
l-1 -315 -37 -1 c-21 0 -38 3 -38 8 0 4 -5 5 -12 1 -17 -11 -108 -11 -108 -1
0 4 -7 4 -16 -1 -9 -5 -32 -6 -50 -2 -19 4 -36 5 -38 1 -6 -8 -48 -7 -63 2 -7
4 -14 4 -17 -1 -5 -9 -47 -9 -63 1 -7 4 -14 4 -17 -1 -5 -9 -47 -9 -63 1 -5 4
-13 4 -16 1 -3 -4 -34 -8 -69 -9 -68 -2 -115 -10 -163 -26 -38 -13 -136 -61
-151 -74 -6 -5 -31 -26 -54 -44 -53 -43 -70 -60 -70 -70 0 -4 -9 -17 -20 -29
-37 -39 -90 -148 -106 -217 -15 -63 -20 -163 -11 -220 14 -83 29 -132 64 -200
78 -151 223 -266 390 -308 62 -16 113 -19 458 -21 l270 -1 1 -320 c1 -222 5
-338 14 -380 8 -33 14 -65 16 -71 5 -28 62 -134 94 -174 169 -216 437 -297
686 -207 50 18 123 55 140 71 7 6 33 29 59 50 50 42 110 120 137 176 59 129
65 169 66 472 0 145 1 291 1 324 l1 61 318 1 c388 1 401 3 512 54 76 36 119
66 180 128 52 52 105 120 93 120 -4 0 -3 4 3 8 17 12 44 77 63 154 25 98 21
228 -9 323 -6 17 -9 32 -7 35 1 3 -8 19 -21 37 -12 17 -22 34 -22 38 0 3 -14
27 -32 53 -106 156 -287 254 -474 257 -44 1 -85 5 -92 9 -7 4 -12 3 -12 -2 0
-9 -51 -7 -77 3 -7 2 -14 1 -17 -3 -6 -9 -48 -8 -63 1 -7 4 -14 4 -17 -1 -5
-9 -47 -9 -63 1 -7 4 -14 4 -17 -1 -5 -9 -47 -9 -63 1 -7 4 -14 4 -17 -1 -5
-9 -47 -9 -63 1 -7 4 -14 4 -17 -1 -5 -9 -75 -7 -83 2 -3 3 -5 147 -6 321 0
363 -6 408 -68 531 -79 159 -236 283 -404 320 -64 14 -220 10 -280 -6z"/>
<path d="M9771 7179 c-24 -5 -65 -16 -90 -26 -25 -10 -48 -18 -51 -18 -10 -1
-105 -60 -108 -67 -2 -4 -8 -8 -13 -8 -29 0 -183 -194 -193 -243 -2 -7 -8 -24
-14 -38 -53 -129 -48 -318 13 -455 13 -30 25 -58 26 -62 1 -4 15 -25 33 -47
118 -151 237 -226 411 -261 64 -13 205 -5 265 16 49 16 65 21 70 22 8 0 92 48
125 71 43 30 128 117 150 155 11 17 23 32 27 32 4 0 8 5 8 11 0 5 9 30 20 54
74 162 70 358 -9 520 -43 88 -63 116 -131 183 -71 69 -199 139 -287 157 -48
10 -206 12 -252 4z"/>
<path d="M8677 6014 c-1 -1 -23 -4 -48 -7 -135 -16 -270 -84 -368 -187 -36
-36 -101 -131 -101 -146 0 -7 -3 -14 -7 -16 -8 -3 -38 -82 -49 -128 -4 -14 -8
-68 -10 -120 -4 -135 23 -237 94 -349 40 -65 130 -161 148 -161 8 0 14 -4 14
-9 0 -4 28 -23 63 -42 34 -18 62 -31 62 -29 0 2 11 -2 23 -9 13 -7 33 -14 45
-17 12 -2 33 -6 47 -10 93 -21 253 -7 351 33 129 51 262 174 322 298 21 41 39
85 41 98 3 12 5 22 6 22 14 0 22 232 9 279 -6 21 -12 48 -15 60 -2 11 -22 57
-44 102 -47 93 -141 197 -221 243 -79 47 -156 76 -234 86 -39 6 -125 12 -128
9z"/>
<path d="M11058 6015 c-2 -2 -28 -5 -58 -6 -133 -7 -273 -73 -380 -179 -183
-184 -233 -456 -127 -691 13 -31 30 -60 36 -63 6 -4 9 -11 6 -16 -3 -5 32 -47
78 -93 164 -166 370 -228 588 -176 46 11 88 24 93 29 6 6 16 10 24 10 48 0
229 162 268 238 11 20 23 40 27 43 5 3 10 12 11 20 2 8 9 28 15 44 45 109 49
295 7 413 -41 119 -117 226 -210 297 -15 11 -32 25 -39 30 -45 36 -179 85
-252 91 -27 3 -58 6 -67 8 -9 2 -18 2 -20 1z"/>
<path d="M9795 4833 c-59 -11 -116 -29 -165 -50 -30 -13 -57 -23 -59 -23 -2 1
-7 -2 -10 -7 -3 -4 -24 -21 -46 -38 -53 -39 -128 -117 -146 -152 -7 -15 -17
-30 -20 -33 -35 -29 -82 -198 -82 -300 -1 -167 40 -286 143 -409 63 -76 199
-173 260 -186 3 0 21 -6 40 -12 37 -12 131 -27 165 -26 43 1 140 13 175 23 98
26 227 105 291 177 38 43 99 136 99 150 0 7 5 13 12 13 6 0 9 3 5 6 -3 3 3 25
13 49 28 66 43 238 27 315 -15 68 -67 201 -87 220 -3 3 -19 23 -35 45 -87 117
-206 193 -365 232 -23 6 -193 11 -215 6z"/>
</g>
</svg>
