<?xml version="1.0" encoding="utf-8"?>
<svg viewBox="326.9092 147.8821 100 100" width="100" height="100" xmlns="http://www.w3.org/2000/svg">
    <g transform="matrix(3.5714290142059326, 0, 0, 3.5714290142059326, -840.6231079101562, -380.2680053710937)">
        <path style="fill:#f4c431; stroke:none;"
              d="M 330.909 147.882 L 330.909 151.882 L 326.909 151.882 L 326.909 171.882 L 334.909 171.882 L 334.909 167.882 L 330.909 167.882 L 330.909 155.882 L 334.909 155.882 L 334.909 151.882 L 346.909 151.882 L 346.909 155.882 L 350.909 155.882 L 350.909 167.882 L 346.909 167.882 L 346.909 171.882 L 354.909 171.882 L 354.909 151.882 L 350.909 151.882 L 350.909 147.882 L 330.909 147.882 Z"/>
        <path style="fill:#f28a0b; stroke:none;"
              d="M 334.909 151.882 L 334.909 155.882 L 346.909 155.882 L 346.909 151.882 L 334.909 151.882 Z"/>
        <path style="fill:#f28e10; stroke:none;"
              d="M 330.909 155.882 L 330.909 167.882 L 334.909 167.882 L 334.909 155.882 L 330.909 155.882 Z"/>
        <path style="fill:#f4c12f; stroke:none;"
              d="M 334.909 155.882 L 334.909 163.882 L 346.909 163.882 L 346.909 155.882 L 334.909 155.882 Z"/>
        <path style="fill:#f8db75; stroke:none;"
              d="M 346.909 155.882 L 346.909 167.882 L 350.909 167.882 L 350.909 155.882 L 346.909 155.882 Z"/>
        <path style="fill:#f4aa42; stroke:none;"
              d="M 334.909 163.882 L 334.909 167.882 L 346.909 167.882 L 346.909 163.882 L 334.909 163.882 Z"/>
        <path style="fill:#f8dc74; stroke:none;"
              d="M 334.909 167.882 L 334.909 171.882 L 346.909 171.882 L 346.909 167.882 L 334.909 167.882 Z"/>
        <path style="fill:#f4ab45; stroke:none;"
              d="M 330.909 171.882 L 330.909 175.882 L 350.909 175.882 L 350.909 171.882 L 330.909 171.882 Z"/>
    </g>
</svg>