<?xml version="1.0" encoding="utf-8"?>
<svg viewBox="0.0001 0 100 100" width="100" height="100" xmlns="http://www.w3.org/2000/svg">
    <g transform="matrix(3.571429014206, 0, 0, 3.571429014206, -388.853936362192, -157.766025987428)"
       style="transform-origin: 388.854px 157.766px;">
        <path style="fill:#cf1546; stroke:none;"
              d="M 392.854 157.766 L 392.854 161.766 L 388.854 161.766 L 388.854 181.766 L 396.854 181.766 L 396.854 177.766 L 392.854 177.766 L 392.854 165.766 L 396.854 165.766 L 396.854 173.766 L 408.854 173.766 L 408.854 165.766 L 412.854 165.766 L 412.854 177.766 L 408.854 177.766 L 408.854 181.766 L 416.854 181.766 L 416.854 161.766 L 412.854 161.766 L 412.854 157.766 L 392.854 157.766 Z"/>
        <path style="fill:#9d1639; stroke:none;"
              d="M 396.854 161.766 L 396.854 165.766 L 408.854 165.766 L 408.854 161.766 L 396.854 161.766 M 392.854 165.766 L 392.854 177.766 L 396.854 177.766 L 396.854 165.766 L 392.854 165.766 Z"/>
        <path style="fill:#ed6479; stroke:none;"
              d="M 408.854 165.766 L 408.854 177.766 L 412.854 177.766 L 412.854 165.766 L 408.854 165.766 Z"/>
        <path style="fill:#c22d6a; stroke:none;"
              d="M 396.854 173.766 L 396.854 177.766 L 408.854 177.766 L 408.854 173.766 L 396.854 173.766 Z"/>
        <path style="fill:#f26c7d; stroke:none;"
              d="M 396.854 177.766 L 396.854 181.766 L 408.854 181.766 L 408.854 177.766 L 396.854 177.766 Z"/>
        <path style="fill:#c22d6a; stroke:none;"
              d="M 392.854 181.766 L 392.854 185.766 L 412.854 185.766 L 412.854 181.766 L 392.854 181.766 Z"/>
    </g>
</svg>