<svg xmlns="http://www.w3.org/2000/svg" width="100" height="100" viewBox="245.056 118.66 100 100"><path style="stroke:none" d="M 259.342 118.66 L 259.342 132.946 L 245.056 132.946 L 245.056 204.375 L 273.627 204.375 L 273.627 190.089 L 259.342 190.089 L 259.342 147.232 L 273.627 147.232 L 273.627 132.946 L 316.484 132.946 L 316.484 147.232 L 330.77 147.232 L 330.77 190.089 L 316.484 190.089 L 316.484 204.375 L 345.056 204.375 L 345.056 132.946 L 330.77 132.946 L 330.77 118.66 L 259.342 118.66 M 259.342 132.375 L 259.342 218.66 L 330.77 218.66 L 330.77 132.375 L 259.342 132.375 Z" transform="matrix(0.9999999999999999, 0, 0, 0.9999999999999999, 0, 0)"/></svg>