<svg xmlns="http://www.w3.org/2000/svg" width="150" height="225" viewBox="0 0 150 225"><defs><pattern id="a" width="48" height="96" patternTransform="matrix(2, 0, 0, 2, 0, 2)" patternUnits="userSpaceOnUse"><rect width="100%" height="100%" x="0" y="0" fill="hsla(0,0%,100%,1)"/><path fill="hsla(0, 0%, 0%, 1)" stroke="none" stroke-width="1" d="M4 0v4H0v8h4V8h4V4h4V0zm16 0v4h-4v4h-4v4H8v4H4v8H0v16h4v8h4v4h4v4h4v4h4v4h4v-4h4v-4h4v-4h4v-4h4v-8h4v-4h4v-8h-4v-4h-4v-8h-4v-4h-4V8h-4V4h-4V0zm12 0v4h4v4h4v4h4v4h4V8h-4V4h-4V0zM20 12h4v4h4v4h4v24h-4v4h-4v4h-4v-4h-4v-4h-4V20h4v-4h4zm0 8v4h-4v16h4v4h4v-4h4V24h-4v-4zm24 28v4h-4v4h-4v4h-4v4h-4v8h-4v4h-4v-4h-4v-8h-4v-4H8v-4H4v-4H0v12h4v4h4v24H4v4h12v-8h4v-4h4v4h4v8h12v-4h-4V68h4v-4h4v-4h4V48zm0 20v4h-4v16h4v4h4V68zM0 72v16h4V72z"/></pattern></defs><rect width="150" height="225" x="0" y="0" fill="url(#a)" transform="matrix(1, 0, 0, 1, 1.4210854715202004e-14, 0)"/></svg>